<svg width="18" height="23" viewBox="0 0 18 23" fill="none" xmlns="http://www.w3.org/2000/svg">
<path d="M9 4.89966C8.18415 4.89966 7.38663 5.14159 6.70827 5.59485C6.02992 6.04811 5.50121 6.69234 5.189 7.44609C4.87679 8.19983 4.7951 9.02923 4.95426 9.82941C5.11343 10.6296 5.50629 11.3646 6.08318 11.9415C6.66008 12.5184 7.39508 12.9112 8.19525 13.0704C8.99542 13.2296 9.82482 13.1479 10.5786 12.8357C11.3323 12.5235 11.9766 11.9947 12.4298 11.3164C12.8831 10.638 13.125 9.84051 13.125 9.02466C13.1238 7.93102 12.6888 6.88253 11.9154 6.10921C11.1421 5.33589 10.0936 4.9009 9 4.89966ZM9 10.8997C8.62916 10.8997 8.26665 10.7897 7.95831 10.5837C7.64996 10.3776 7.40964 10.0848 7.26773 9.74219C7.12581 9.39958 7.08868 9.02258 7.16103 8.65886C7.23337 8.29515 7.41195 7.96106 7.67417 7.69883C7.9364 7.43661 8.27049 7.25803 8.6342 7.18569C8.99792 7.11334 9.37492 7.15047 9.71753 7.29238C10.0601 7.4343 10.353 7.67462 10.559 7.98296C10.765 8.29131 10.875 8.65382 10.875 9.02466C10.875 9.52194 10.6775 9.99885 10.3258 10.3505C9.97419 10.7021 9.49728 10.8997 9 10.8997ZM9 0.399658C6.71327 0.40214 4.52091 1.31164 2.90394 2.9286C1.28698 4.54557 0.377482 6.73793 0.375 9.02466C0.375 16.2772 8.02875 21.7184 8.355 21.9462C8.54407 22.0785 8.76924 22.1495 9 22.1495C9.23076 22.1495 9.45594 22.0785 9.645 21.9462C11.0946 20.8779 12.4209 19.6516 13.5994 18.29C16.2328 15.2656 17.625 12.0593 17.625 9.02466C17.6225 6.73793 16.713 4.54557 15.0961 2.9286C13.4791 1.31164 11.2867 0.40214 9 0.399658ZM11.9344 16.7787C11.0405 17.8055 10.0586 18.7522 9 19.6081C7.94136 18.7522 6.9595 17.8055 6.06562 16.7787C4.5 14.9656 2.625 12.1475 2.625 9.02466C2.625 7.3339 3.29665 5.7124 4.49219 4.51685C5.68774 3.32131 7.30925 2.64966 9 2.64966C10.6908 2.64966 12.3123 3.32131 13.5078 4.51685C14.7034 5.7124 15.375 7.3339 15.375 9.02466C15.375 12.1475 13.5 14.9656 11.9344 16.7787Z" fill="#38BFBE"/>
</svg>
