<svg width="118" height="41" viewBox="0 0 118 41" fill="none" xmlns="http://www.w3.org/2000/svg">
<rect x="0.442351" y="-0.442351" width="93.2845" height="31.8591" rx="5.30821" transform="matrix(1.25 0 0 -1.25 -0.110588 39.859)" fill="#F3FCFB"/>
<rect x="0.442351" y="-0.442351" width="93.2845" height="31.8591" rx="5.30821" transform="matrix(1.25 0 0 -1.25 -0.110588 39.859)" stroke="#38BFBE" stroke-width="0.707761"/>
<path d="M23.4379 19.7059C23.4105 16.7404 25.9283 15.2977 26.0434 15.2306C24.6175 13.2036 22.4074 12.9267 21.6307 12.9046C19.7745 12.7141 17.974 13.9875 17.0284 13.9875C16.064 13.9875 14.6079 12.923 13.0385 12.9543C11.019 12.9846 9.12978 14.1246 8.09362 15.8949C5.95523 19.5044 7.55006 24.8087 9.59879 27.7263C10.6236 29.1552 11.8212 30.7506 13.3886 30.6945C14.9221 30.6329 15.4949 29.7413 17.3455 29.7413C19.179 29.7413 19.7169 30.6945 21.3155 30.6586C22.9613 30.6329 23.9975 29.2233 24.9865 27.7815C26.1708 26.1437 26.6464 24.5308 26.6653 24.448C26.6266 24.4351 23.469 23.2602 23.4379 19.7059Z" fill="#2B374D"/>
<path d="M20.4181 10.9853C21.2429 9.97961 21.8072 8.61144 21.6505 7.22302C20.4568 7.27455 18.9639 8.0281 18.1042 9.01168C17.3436 9.8784 16.6641 11.299 16.8397 12.635C18.1806 12.7325 19.5575 11.9753 20.4181 10.9853Z" fill="#2B374D"/>
<path d="M45.7605 30.1788H43.6174L42.4434 26.5821H38.3629L37.2447 30.1788H35.1582L39.2009 17.9342H41.6979L45.7605 30.1788ZM42.0895 25.0732L41.0279 21.8759C40.9156 21.5493 40.7052 20.7801 40.3947 19.5692H40.3569C40.2333 20.09 40.0342 20.8592 39.7605 21.8759L38.7178 25.0732H42.0895Z" fill="#2B374D"/>
<path d="M56.157 25.6556C56.157 27.1572 55.7408 28.3441 54.9085 29.2155C54.163 29.9911 53.2373 30.3785 52.1322 30.3785C50.9394 30.3785 50.0825 29.9607 49.5607 29.1253H49.5229V33.7764H47.511V24.2562C47.511 23.3122 47.4855 22.3433 47.4364 21.3496H49.2058L49.3181 22.7491H49.3559C50.0269 21.6947 51.0451 21.1684 52.4115 21.1684C53.4798 21.1684 54.3716 21.5796 55.085 22.4031C55.8003 23.2275 56.157 24.3114 56.157 25.6556ZM54.1073 25.7274C54.1073 24.868 53.9092 24.1596 53.5109 23.602C53.0759 23.0205 52.4917 22.7298 51.7594 22.7298C51.2631 22.7298 50.812 22.8917 50.409 23.211C50.0051 23.533 49.7409 23.9535 49.6173 24.4742C49.555 24.7171 49.5239 24.9159 49.5239 25.0723V26.5444C49.5239 27.1867 49.7258 27.7286 50.1297 28.1712C50.5336 28.6137 51.0583 28.8346 51.7038 28.8346C52.4615 28.8346 53.0514 28.5493 53.4732 27.9807C53.8959 27.4112 54.1073 26.6604 54.1073 25.7274Z" fill="#2B374D"/>
<path d="M66.5724 25.6556C66.5724 27.1572 66.1563 28.3441 65.323 29.2155C64.5784 29.9911 63.6527 30.3785 62.5476 30.3785C61.3548 30.3785 60.498 29.9607 59.977 29.1253H59.9393V33.7764H57.9274V24.2562C57.9274 23.3122 57.9019 22.3433 57.8528 21.3496H59.6222L59.7345 22.7491H59.7723C60.4423 21.6947 61.4605 21.1684 62.8279 21.1684C63.8952 21.1684 64.787 21.5796 65.5023 22.4031C66.2148 23.2275 66.5724 24.3114 66.5724 25.6556ZM64.5228 25.7274C64.5228 24.868 64.3236 24.1596 63.9254 23.602C63.4904 23.0205 62.9081 22.7298 62.1749 22.7298C61.6776 22.7298 61.2274 22.8917 60.8235 23.211C60.4196 23.533 60.1563 23.9535 60.0327 24.4742C59.9714 24.7171 59.9393 24.9159 59.9393 25.0723V26.5444C59.9393 27.1867 60.1412 27.7286 60.5432 28.1712C60.9471 28.6128 61.4718 28.8346 62.1192 28.8346C62.877 28.8346 63.4668 28.5493 63.8886 27.9807C64.3114 27.4112 64.5228 26.6604 64.5228 25.7274Z" fill="#2B374D"/>
<path d="M78.2175 26.745C78.2175 27.7866 77.8466 28.634 77.102 29.2882C76.2839 30.0031 75.1448 30.3601 73.6812 30.3601C72.3298 30.3601 71.2465 30.1061 70.4264 29.5973L70.8926 27.9623C71.7759 28.4831 72.7451 28.7444 73.801 28.7444C74.5588 28.7444 75.1486 28.5769 75.5723 28.2439C75.9942 27.9108 76.2046 27.4636 76.2046 26.906C76.2046 26.4092 76.031 25.9905 75.6827 25.651C75.3364 25.3115 74.7579 24.9959 73.9501 24.7043C71.7514 23.9047 70.6529 22.7334 70.6529 21.1932C70.6529 20.1866 71.0379 19.3613 71.8089 18.7191C72.5771 18.0759 73.6019 17.7548 74.8834 17.7548C76.0262 17.7548 76.9756 17.949 77.7334 18.3363L77.2304 19.9354C76.5226 19.56 75.7224 19.3723 74.8268 19.3723C74.1191 19.3723 73.5661 19.5426 73.1697 19.8812C72.8347 20.1839 72.6667 20.5528 72.6667 20.9899C72.6667 21.4738 72.8583 21.8741 73.2433 22.1887C73.5783 22.4795 74.187 22.7942 75.0703 23.1337C76.1508 23.5578 76.9444 24.0538 77.455 24.6224C77.9636 25.1892 78.2175 25.8985 78.2175 26.745Z" fill="#2B374D"/>
<path d="M84.8695 22.8217H82.6518V27.1084C82.6518 28.1988 83.0425 28.7434 83.8258 28.7434C84.1853 28.7434 84.4835 28.7131 84.7194 28.6524L84.7751 30.142C84.3788 30.2864 83.8569 30.3591 83.2105 30.3591C82.4159 30.3591 81.795 30.1227 81.3467 29.6507C80.9004 29.1777 80.6758 28.3846 80.6758 27.2704V22.8199H79.3546V21.3478H80.6758V19.7312L82.6518 19.1497V21.3478H84.8695V22.8217Z" fill="#2B374D"/>
<path d="M94.8753 25.6915C94.8753 27.0486 94.4771 28.1629 93.6825 29.0342C92.8492 29.9313 91.7433 30.3785 90.3645 30.3785C89.0358 30.3785 87.978 29.9488 87.189 29.0894C86.4001 28.23 86.0057 27.1453 86.0057 25.8378C86.0057 24.4696 86.4114 23.349 87.2258 22.4776C88.0384 21.6054 89.1349 21.1693 90.5136 21.1693C91.8423 21.1693 92.9115 21.599 93.7184 22.4592C94.4903 23.2938 94.8753 24.3712 94.8753 25.6915ZM92.7879 25.755C92.7879 24.9407 92.6095 24.2424 92.2481 23.66C91.8263 22.9552 91.2233 22.6037 90.4419 22.6037C89.6332 22.6037 89.0188 22.9561 88.597 23.66C88.2356 24.2433 88.0572 24.9527 88.0572 25.7918C88.0572 26.6061 88.2356 27.3044 88.597 27.8859C89.0321 28.5907 89.6398 28.9422 90.424 28.9422C91.1921 28.9422 91.7952 28.5834 92.2302 27.8675C92.6011 27.2741 92.7879 26.5684 92.7879 25.755Z" fill="#2B374D"/>
<path d="M101.415 23.0748C101.216 23.0389 101.004 23.0205 100.781 23.0205C100.073 23.0205 99.5258 23.2809 99.1408 23.8026C98.8058 24.2626 98.6378 24.8441 98.6378 25.5462V30.1788H96.6268L96.6457 24.1301C96.6457 23.1125 96.6202 22.186 96.5702 21.3505H98.3226L98.3962 23.0398H98.4519C98.6642 22.4593 98.9992 21.9918 99.4579 21.6413C99.9061 21.3257 100.39 21.1684 100.912 21.1684C101.098 21.1684 101.266 21.1812 101.415 21.2042V23.0748Z" fill="#2B374D"/>
<path d="M110.413 25.3465C110.413 25.698 110.389 25.9942 110.339 26.2362H104.304C104.327 27.1085 104.619 27.7755 105.179 28.2356C105.688 28.6468 106.346 28.8529 107.154 28.8529C108.047 28.8529 108.863 28.714 109.596 28.4352L109.911 29.797C109.054 30.1613 108.043 30.3426 106.875 30.3426C105.471 30.3426 104.369 29.9396 103.567 29.1345C102.766 28.3294 102.365 27.2483 102.365 25.8921C102.365 24.5607 102.738 23.452 103.485 22.5678C104.266 21.6238 105.322 21.1518 106.651 21.1518C107.956 21.1518 108.944 21.6238 109.615 22.5678C110.146 23.3177 110.413 24.2451 110.413 25.3465ZM108.495 24.8377C108.508 24.2562 108.377 23.7538 108.104 23.3296C107.756 22.784 107.221 22.5117 106.501 22.5117C105.843 22.5117 105.308 22.7776 104.899 23.3112C104.564 23.7354 104.365 24.2442 104.304 24.8368H108.495V24.8377Z" fill="#2B374D"/>
<path d="M41.4262 10.4001C41.4262 11.483 41.093 12.2982 40.4277 12.8457C39.8115 13.3508 38.9358 13.6039 37.8015 13.6039C37.239 13.6039 36.7578 13.5799 36.3548 13.5321V7.61499C36.8804 7.53218 37.4466 7.48985 38.0582 7.48985C39.1387 7.48985 39.9531 7.71896 40.5023 8.17716C41.1176 8.69517 41.4262 9.43584 41.4262 10.4001ZM40.3834 10.4268C40.3834 9.72475 40.1928 9.1865 39.8115 8.8111C39.4303 8.43663 38.8735 8.24893 38.1403 8.24893C37.8288 8.24893 37.5637 8.26917 37.3438 8.31149V12.8098C37.4655 12.8282 37.6882 12.8365 38.0119 12.8365C38.7687 12.8365 39.3529 12.6313 39.7643 12.221C40.1758 11.8106 40.3834 11.2125 40.3834 10.4268Z" fill="#2B374D"/>
<path d="M46.9552 11.3459C46.9552 12.013 46.7598 12.5595 46.3692 12.9883C45.9596 13.429 45.417 13.6489 44.7394 13.6489C44.0864 13.6489 43.5664 13.4382 43.1786 13.015C42.7917 12.5927 42.5982 12.0599 42.5982 11.4177C42.5982 10.746 42.7973 10.1949 43.1974 9.76707C43.5976 9.33923 44.1355 9.12485 44.813 9.12485C45.4661 9.12485 45.9907 9.33555 46.388 9.75787C46.7655 10.1682 46.9552 10.6982 46.9552 11.3459ZM45.9294 11.3772C45.9294 10.977 45.8407 10.6338 45.6642 10.3477C45.4566 10.0017 45.1613 9.82872 44.7772 9.82872C44.3799 9.82872 44.0779 10.0017 43.8703 10.3477C43.6929 10.6338 43.6051 10.9825 43.6051 11.3947C43.6051 11.795 43.6938 12.1381 43.8703 12.4243C44.0845 12.7702 44.3827 12.9432 44.7677 12.9432C45.1452 12.9432 45.4415 12.7675 45.6548 12.4151C45.8379 12.1234 45.9294 11.7775 45.9294 11.3772Z" fill="#2B374D"/>
<path d="M54.3687 9.21318L52.9768 13.5505H52.0709L51.4943 11.6671C51.348 11.1969 51.2291 10.7295 51.1366 10.2658H51.1187C51.0328 10.7424 50.9139 11.2089 50.7611 11.6671L50.1486 13.5505H49.2323L47.9234 9.21318H48.9398L49.4427 11.2751C49.5645 11.7627 49.6645 12.2274 49.7447 12.6672H49.7626C49.8362 12.3047 49.958 11.8428 50.1297 11.2843L50.7611 9.2141H51.567L52.1719 11.2401C52.3181 11.7342 52.437 12.2099 52.5286 12.6681H52.5559C52.6229 12.2219 52.7239 11.7462 52.8579 11.2401L53.3977 9.2141H54.3687V9.21318Z" fill="#2B374D"/>
<path d="M59.4958 13.5505H58.5068V11.0662C58.5068 10.3007 58.2086 9.91797 57.6103 9.91797C57.3168 9.91797 57.08 10.0229 56.8959 10.2336C56.7138 10.4443 56.6213 10.6927 56.6213 10.977V13.5496H55.6323V10.4525C55.6323 10.0716 55.6201 9.65851 55.5965 9.21135H56.4656L56.5119 9.88945H56.5392C56.6544 9.67875 56.8261 9.50485 57.0516 9.36592C57.3196 9.20398 57.6197 9.1221 57.9481 9.1221C58.3634 9.1221 58.7087 9.25275 58.9834 9.51497C59.325 9.83609 59.4958 10.3155 59.4958 10.9522V13.5505Z" fill="#2B374D"/>
<path d="M62.223 13.5505H61.235V7.22302H62.223V13.5505Z" fill="#2B374D"/>
<path d="M68.0455 11.3459C68.0455 12.013 67.8502 12.5595 67.4595 12.9883C67.05 13.429 66.5064 13.6489 65.8298 13.6489C65.1758 13.6489 64.6558 13.4382 64.2689 13.015C63.882 12.5927 63.6886 12.0599 63.6886 11.4177C63.6886 10.746 63.8877 10.1949 64.2878 9.76707C64.6879 9.33923 65.2258 9.12485 65.9024 9.12485C66.5564 9.12485 67.0802 9.33555 67.4784 9.75787C67.8559 10.1682 68.0455 10.6982 68.0455 11.3459ZM67.0188 11.3772C67.0188 10.977 66.9301 10.6338 66.7536 10.3477C66.547 10.0017 66.2507 9.82872 65.8675 9.82872C65.4693 9.82872 65.1673 10.0017 64.9606 10.3477C64.7832 10.6338 64.6955 10.9825 64.6955 11.3947C64.6955 11.795 64.7842 12.1381 64.9606 12.4243C65.1749 12.7702 65.4731 12.9432 65.8581 12.9432C66.2356 12.9432 66.5309 12.7675 66.7442 12.4151C66.9282 12.1234 67.0188 11.7775 67.0188 11.3772Z" fill="#2B374D"/>
<path d="M72.8319 13.5505H71.9439L71.8703 13.0509H71.8429C71.5391 13.4493 71.1059 13.6489 70.5435 13.6489C70.1235 13.6489 69.7838 13.5174 69.5281 13.2561C69.2959 13.0187 69.1798 12.7233 69.1798 12.3728C69.1798 11.8428 69.4063 11.4389 69.8621 11.1592C70.317 10.8795 70.9568 10.7424 71.7806 10.7488V10.6678C71.7806 10.0965 71.473 9.81124 70.8568 9.81124C70.418 9.81124 70.0311 9.91889 69.697 10.1323L69.496 9.49933C69.9093 9.24998 70.4198 9.12485 71.0219 9.12485C72.1845 9.12485 72.7677 9.72291 72.7677 10.919V12.5163C72.7677 12.9497 72.7894 13.2947 72.8319 13.5505ZM71.8052 12.0599V11.391C70.7143 11.3726 70.1688 11.6643 70.1688 12.2651C70.1688 12.4915 70.2311 12.6608 70.3585 12.7739C70.4859 12.8871 70.6482 12.9432 70.8417 12.9432C71.0587 12.9432 71.2616 12.8761 71.4466 12.7426C71.6325 12.6083 71.7467 12.4381 71.7891 12.2292C71.7995 12.1823 71.8052 12.1253 71.8052 12.0599Z" fill="#2B374D"/>
<path d="M78.4515 13.5505H77.5739L77.5277 12.854H77.5003C77.22 13.3839 76.7425 13.6489 76.0716 13.6489C75.5355 13.6489 75.0892 13.4437 74.7353 13.0334C74.3814 12.623 74.205 12.0903 74.205 11.4361C74.205 10.7341 74.3965 10.1655 74.7816 9.73119C75.1543 9.32635 75.611 9.12393 76.1546 9.12393C76.7519 9.12393 77.17 9.31991 77.4078 9.71279H77.4267V7.22302H78.4166V12.382C78.4166 12.8043 78.4279 13.1935 78.4515 13.5505ZM77.4267 11.7213V10.9982C77.4267 10.873 77.4172 10.7718 77.3993 10.6945C77.3436 10.4627 77.2238 10.2676 77.0417 10.1103C76.8576 9.95293 76.6359 9.8738 76.3801 9.8738C76.0112 9.8738 75.7224 10.0164 75.5101 10.3026C75.2996 10.5887 75.193 10.954 75.193 11.4002C75.193 11.829 75.294 12.1768 75.4969 12.4445C75.7111 12.7298 75.9998 12.8724 76.3613 12.8724C76.6859 12.8724 76.9454 12.7537 77.1426 12.5154C77.3333 12.2955 77.4267 12.0305 77.4267 11.7213Z" fill="#2B374D"/>
<path d="M86.9097 11.3459C86.9097 12.013 86.7144 12.5595 86.3237 12.9883C85.9142 13.429 85.3725 13.6489 84.694 13.6489C84.0419 13.6489 83.5219 13.4382 83.1331 13.015C82.7462 12.5927 82.5528 12.0599 82.5528 11.4177C82.5528 10.746 82.7519 10.1949 83.152 9.76707C83.5521 9.33923 84.09 9.12485 84.7685 9.12485C85.4206 9.12485 85.9462 9.33555 86.3426 9.75787C86.7201 10.1682 86.9097 10.6982 86.9097 11.3459ZM85.8849 11.3772C85.8849 10.977 85.7962 10.6338 85.6197 10.3477C85.4112 10.0017 85.1168 9.82872 84.7317 9.82872C84.3354 9.82872 84.0334 10.0017 83.8248 10.3477C83.6474 10.6338 83.5597 10.9825 83.5597 11.3947C83.5597 11.795 83.6484 12.1381 83.8248 12.4243C84.0391 12.7702 84.3373 12.9432 84.7223 12.9432C85.0998 12.9432 85.397 12.7675 85.6103 12.4151C85.7924 12.1234 85.8849 11.7775 85.8849 11.3772Z" fill="#2B374D"/>
<path d="M92.2274 13.5505H91.2394V11.0662C91.2394 10.3007 90.9412 9.91797 90.3419 9.91797C90.0484 9.91797 89.8116 10.0229 89.6285 10.2336C89.4454 10.4443 89.3539 10.6927 89.3539 10.977V13.5496H88.364V10.4525C88.364 10.0716 88.3526 9.65851 88.329 9.21135H89.1972L89.2435 9.88945H89.2708C89.3869 9.67875 89.5587 9.50485 89.7833 9.36592C90.0522 9.20398 90.3514 9.1221 90.6807 9.1221C91.095 9.1221 91.4404 9.25275 91.715 9.51497C92.0575 9.83609 92.2274 10.3155 92.2274 10.9522V13.5505Z" fill="#2B374D"/>
<path d="M98.8832 9.93545H97.7942V12.0425C97.7942 12.578 97.9876 12.8457 98.3708 12.8457C98.5482 12.8457 98.6954 12.831 98.8115 12.8006L98.8369 13.5321C98.6416 13.6039 98.3849 13.6397 98.0688 13.6397C97.6781 13.6397 97.3742 13.5238 97.1544 13.2919C96.9335 13.0601 96.8241 12.67 96.8241 12.1225V9.93545H96.1739V9.21318H96.8241V8.41823L97.7932 8.133V9.21226H98.8822V9.93545H98.8832Z" fill="#2B374D"/>
<path d="M104.119 13.5505H103.129V11.0846C103.129 10.3072 102.831 9.91797 102.233 9.91797C101.775 9.91797 101.461 10.1434 101.29 10.5942C101.26 10.689 101.243 10.8049 101.243 10.9411V13.5496H100.255V7.22302H101.243V9.837H101.262C101.574 9.36131 102.02 9.12393 102.598 9.12393C103.008 9.12393 103.347 9.25458 103.616 9.51681C103.951 9.84344 104.119 10.3292 104.119 10.9715V13.5505Z" fill="#2B374D"/>
<path d="M109.519 11.1766C109.519 11.3496 109.506 11.495 109.483 11.6137H106.517C106.53 12.0425 106.671 12.3691 106.946 12.5954C107.197 12.7978 107.521 12.8991 107.917 12.8991C108.356 12.8991 108.756 12.831 109.116 12.6939L109.271 13.3637C108.849 13.5422 108.353 13.6314 107.778 13.6314C107.089 13.6314 106.547 13.4336 106.154 13.038C105.76 12.6423 105.564 12.1115 105.564 11.4453C105.564 10.7911 105.747 10.2464 106.114 9.81215C106.497 9.34843 107.015 9.11657 107.669 9.11657C108.309 9.11657 108.795 9.34843 109.123 9.81215C109.388 10.1802 109.519 10.6356 109.519 11.1766ZM108.576 10.9273C108.583 10.6412 108.518 10.3946 108.384 10.1866C108.212 9.91888 107.951 9.78455 107.597 9.78455C107.274 9.78455 107.011 9.9152 106.81 10.1774C106.646 10.3863 106.549 10.6356 106.517 10.9273H108.576Z" fill="#2B374D"/>
</svg>
