<svg width="48" height="49" viewBox="0 0 48 49" fill="none" xmlns="http://www.w3.org/2000/svg">
<g clip-path="url(#clip0_2030_460)">
<path d="M8.82126 18.2405C8.53722 18.5907 8.17792 18.8723 7.77007 19.0646C7.36222 19.2568 6.91629 19.3547 6.46542 19.3509C6.41308 18.4568 6.71496 17.5781 7.30572 16.905C7.90194 16.2179 8.74064 15.7878 9.64656 15.7046C9.68241 16.1608 9.62798 16.6196 9.48637 17.0547C9.34475 17.4898 9.11874 17.8928 8.82126 18.2405ZM9.64656 19.531C8.34109 19.4559 7.23069 20.2662 6.64548 20.2662C6.06027 20.2662 5.14494 19.576 4.03454 19.591C3.35933 19.6045 2.6994 19.7944 2.12029 20.1419C1.54118 20.4894 1.06304 20.9823 0.733358 21.5717C-0.662142 23.9876 0.373229 27.5738 1.73872 29.5396C2.39896 30.4999 3.23926 31.5803 4.24462 31.5353C5.24998 31.4903 5.62511 30.89 6.82555 30.89C8.02598 30.89 8.32608 31.5353 9.42148 31.5203C10.5169 31.5053 11.1921 30.5449 11.8674 29.5696C12.3336 28.8804 12.6975 28.1273 12.9477 27.3338C12.321 27.0623 11.787 26.6139 11.4112 26.0436C11.0354 25.4732 10.8341 24.8056 10.832 24.1226C10.8428 23.5191 11.0051 22.928 11.304 22.4036C11.6029 21.8792 12.0288 21.4383 12.5426 21.1215C12.2117 20.6557 11.7788 20.2716 11.2769 19.9986C10.775 19.7255 10.2174 19.5707 9.64656 19.546M17.1492 16.83V31.4602H19.4901V26.4184H22.6262C23.2697 26.4545 23.9136 26.3557 24.5167 26.1281C25.1197 25.9006 25.6684 25.5495 26.1277 25.0973C26.5869 24.6451 26.9465 24.1018 27.1834 23.5024C27.4202 22.903 27.5291 22.2607 27.503 21.6167C27.5329 20.9782 27.4292 20.3405 27.1985 19.7443C26.9678 19.1482 26.6151 18.6068 26.1631 18.1548C25.7111 17.7028 25.1698 17.3502 24.5736 17.1195C23.9775 16.8887 23.3398 16.785 22.7012 16.815L17.1492 16.83ZM19.4901 18.7357H22.041C22.4421 18.6787 22.8509 18.7122 23.2374 18.8337C23.6239 18.9552 23.9783 19.1616 24.2747 19.4379C24.5711 19.7141 24.8019 20.0531 24.9503 20.4301C25.0986 20.8072 25.1608 21.2126 25.1321 21.6167C25.1603 22.0233 25.0975 22.4311 24.9485 22.8105C24.7995 23.1898 24.5679 23.5312 24.2705 23.81C23.9731 24.0887 23.6174 24.2977 23.2291 24.4219C22.8409 24.546 22.4299 24.5822 22.026 24.5278H19.4901V18.7357ZM31.5844 31.4602C32.2554 31.4764 32.9183 31.3123 33.5043 30.9851C34.0902 30.6578 34.5776 30.1793 34.9156 29.5996V31.4602H37.0164V24.1526C37.0164 22.0369 35.3358 20.6864 32.7398 20.6864C30.1439 20.6864 28.5984 22.0669 28.4933 23.9576H30.5341C30.6508 23.4908 30.9322 23.0819 31.3265 22.8062C31.7207 22.5305 32.2014 22.4065 32.6798 22.457C34.0603 22.457 34.8406 23.1172 34.8406 24.3027V25.098L32.0046 25.278C29.3786 25.4281 27.9531 26.5085 27.9531 28.3841C27.9681 28.8322 28.0767 29.2721 28.272 29.6757C28.4672 30.0792 28.7448 30.4374 29.0869 30.7271C29.429 31.0169 29.8279 31.2318 30.2581 31.3581C30.6882 31.4843 31.14 31.5191 31.5844 31.4602ZM32.1846 29.7346C30.9842 29.7346 30.2189 29.1494 30.2189 28.2341C30.2189 27.3188 30.9542 26.7335 32.3647 26.7335L34.8856 26.5685V27.3938C34.879 27.7331 34.8022 28.0674 34.6601 28.3756C34.5181 28.6838 34.3138 28.9594 34.0601 29.1848C33.8065 29.4103 33.5089 29.5809 33.1861 29.6858C32.8634 29.7908 32.5224 29.8278 32.1846 29.7946V29.7346ZM39.8674 35.3166C42.0732 35.3166 43.1086 34.4763 44.0239 31.9254L48.0003 20.8214H45.7045L43.0335 29.4495L40.3626 20.8214H37.9467L41.7881 31.4602L41.578 32.1055C41.5012 32.5465 41.2642 32.9437 40.9125 33.2206C40.5608 33.4976 40.1191 33.6348 39.6723 33.606H38.9971V35.3616C39.2867 35.3824 39.5772 35.3874 39.8674 35.3766V35.3166Z" fill="#2B374D"/>
</g>
<defs>
<clipPath id="clip0_2030_460">
<rect width="48" height="48" fill="white" transform="translate(0 0.274902)"/>
</clipPath>
</defs>
</svg>
