<svg width="24" height="25" viewBox="0 0 24 25" fill="none" xmlns="http://www.w3.org/2000/svg">
<path d="M23.9983 12.2753C23.9983 18.3361 19.5059 23.3466 13.6698 24.1597C13.1242 24.2354 12.5659 24.2749 11.9992 24.2749C11.345 24.2749 10.7026 24.2228 10.0771 24.1219C4.36379 23.202 0 18.2478 0 12.2753C0 5.64785 5.37276 0.274902 12 0.274902C18.6272 0.274902 24 5.64785 24 12.2753H23.9983Z" fill="#6E7C91"/>
<path d="M13.6708 9.91103V12.5252H16.9046L16.3925 16.0466H13.6708V24.1598C13.1251 24.2355 12.5668 24.275 12.0001 24.275C11.346 24.275 10.7036 24.2229 10.078 24.122V16.0466H7.0957V12.5252H10.078V9.32665C10.078 7.34228 11.6865 5.73291 13.6717 5.73291V5.73459C13.6775 5.73459 13.6826 5.73291 13.6885 5.73291H16.9054V8.77842H14.8034C14.1787 8.77842 13.6717 9.28545 13.6717 9.91019L13.6708 9.91103Z" fill="white"/>
</svg>
