<svg width="124" height="41" viewBox="0 0 124 41" fill="none" xmlns="http://www.w3.org/2000/svg">
<rect x="0.442351" y="-0.442351" width="97.6043" height="30.648" rx="5.30821" transform="matrix(1.25 0 0 -1.25 0.379647 39.1021)" fill="#F3FCFB"/>
<rect x="0.442351" y="-0.442351" width="97.6043" height="30.648" rx="5.30821" transform="matrix(1.25 0 0 -1.25 0.379647 39.1021)" stroke="#38BFBE" stroke-width="0.707761"/>
<path d="M8.0049 9.03531C7.72808 9.31824 7.56787 9.75873 7.56787 10.3292V30.677C7.56787 31.2474 7.72808 31.6879 8.0049 31.9709L8.07322 32.033L19.7517 20.6353V20.3662L8.07322 8.96861L8.0049 9.03531Z" fill="url(#paint0_linear_2030_77)"/>
<path d="M23.641 24.4359L19.7524 20.6347V20.3656L23.6457 16.5645L23.7328 16.6139L28.3435 19.1752C29.6593 19.9021 29.6593 21.0982 28.3435 21.8297L23.7328 24.3864L23.641 24.4359Z" fill="url(#paint1_linear_2030_77)"/>
<path d="M23.7331 24.3828L19.7527 20.4966L8.00586 31.9666C8.44289 32.4152 9.15557 32.4692 9.96602 32.0207L23.7331 24.3828Z" fill="url(#paint2_linear_2030_77)"/>
<path d="M23.7331 16.6133L9.96602 8.97539C9.15557 8.53145 8.44289 8.5855 8.00586 9.03404L19.7527 20.4995L23.7331 16.6133Z" fill="url(#paint3_linear_2030_77)"/>
<path d="M42.8419 11.089C42.8419 11.8573 42.6063 12.4726 42.1422 12.9315C41.6086 13.4755 40.9136 13.7492 40.0619 13.7492C39.2479 13.7492 38.5529 13.4709 37.9828 12.9223C37.4114 12.3656 37.1264 11.6824 37.1264 10.8647C37.1264 10.047 37.4114 9.36381 37.9828 8.81176C38.5529 8.25855 39.2479 7.98022 40.0619 7.98022C40.4671 7.98022 40.8535 8.06188 41.2222 8.2137C41.5897 8.36666 41.8889 8.57368 42.1057 8.82901L41.6133 9.31436C41.2352 8.87846 40.7204 8.66339 40.0619 8.66339C39.4682 8.66339 38.9534 8.86581 38.5164 9.2741C38.0841 9.68354 37.8673 10.2137 37.8673 10.8647C37.8673 11.5157 38.0841 12.0505 38.5164 12.4599C38.9534 12.8636 39.4682 13.0706 40.0619 13.0706C40.6921 13.0706 41.2222 12.8636 41.6404 12.4553C41.916 12.185 42.0727 11.8124 42.1139 11.3363H40.0619V10.6715H42.7995C42.8325 10.8153 42.8419 10.9544 42.8419 11.089Z" fill="#2B374D"/>
<path d="M47.1851 8.78415H44.6136V10.5323H46.9319V11.1971H44.6136V12.9453H47.1851V13.6227H43.8856V8.10673H47.1851V8.78415Z" fill="#2B374D"/>
<path d="M50.2502 13.6227H49.5222V8.78415H47.9449V8.10673H51.8287V8.78415H50.2502V13.6227Z" fill="#2B374D"/>
<path d="M54.6394 13.6227V8.10673H55.3662V13.6227H54.6394Z" fill="#2B374D"/>
<path d="M58.588 13.6227H57.8659V8.78415H56.2827V8.10673H60.1712V8.78415H58.588V13.6227Z" fill="#2B374D"/>
<path d="M67.5242 12.9131C66.967 13.4709 66.2767 13.7492 65.4533 13.7492C64.6251 13.7492 63.9349 13.4709 63.3777 12.9131C62.8217 12.3564 62.5448 11.6732 62.5448 10.8647C62.5448 10.0562 62.8217 9.37301 63.3777 8.81636C63.9349 8.25855 64.6251 7.98022 65.4533 7.98022C66.272 7.98022 66.9623 8.25855 67.5195 8.82096C68.0802 9.38221 68.357 10.0608 68.357 10.8647C68.357 11.6732 68.0802 12.3564 67.5242 12.9131ZM63.916 12.4507C64.3354 12.8636 64.8454 13.0706 65.4533 13.0706C66.0564 13.0706 66.5712 12.8636 66.9858 12.4507C67.404 12.0378 67.616 11.5076 67.616 10.8647C67.616 10.2218 67.404 9.69159 66.9858 9.2787C66.5712 8.86581 66.0564 8.65879 65.4533 8.65879C64.8454 8.65879 64.3354 8.86581 63.916 9.2787C63.4978 9.69159 63.2858 10.2218 63.2858 10.8647C63.2858 11.5076 63.4978 12.0378 63.916 12.4507Z" fill="#2B374D"/>
<path d="M69.3783 13.6227V8.10673H70.2618L73.0088 12.3966H73.0406L73.0088 11.3362V8.10673H73.7356V13.6227H72.977L70.1004 9.12113H70.0686L70.1004 10.1861V13.6227H69.3783Z" fill="#2B374D"/>
<path d="M62.364 21.6796C60.1506 21.6796 58.3424 23.3243 58.3424 25.5934C58.3424 27.8442 60.1506 29.5061 62.364 29.5061C64.5821 29.5061 66.3903 27.8442 66.3903 25.5934C66.3903 23.3243 64.5821 21.6796 62.364 21.6796ZM62.364 27.965C61.1495 27.965 60.1046 26.9862 60.1046 25.5934C60.1046 24.1822 61.1495 23.2208 62.364 23.2208C63.5785 23.2208 64.6281 24.1822 64.6281 25.5934C64.6281 26.9862 63.5785 27.965 62.364 27.965ZM53.5892 21.6796C51.3711 21.6796 49.5676 23.3243 49.5676 25.5934C49.5676 27.8442 51.3711 29.5061 53.5892 29.5061C55.8062 29.5061 57.6108 27.8442 57.6108 25.5934C57.6108 23.3243 55.8062 21.6796 53.5892 21.6796ZM53.5892 27.965C52.3735 27.965 51.3251 26.9862 51.3251 25.5934C51.3251 24.1822 52.3735 23.2208 53.5892 23.2208C54.8037 23.2208 55.8486 24.1822 55.8486 25.5934C55.8486 26.9862 54.8037 27.965 53.5892 27.965ZM43.1476 22.8792V24.5422H47.2152C47.0962 25.4715 46.7781 26.1547 46.2904 26.6308C45.6967 27.2059 44.772 27.8442 43.1476 27.8442C40.6444 27.8442 38.6842 25.8718 38.6842 23.4278C38.6842 20.9838 40.6444 19.0113 43.1476 19.0113C44.5011 19.0113 45.4859 19.5277 46.2127 20.1971L47.4131 19.0251C46.3965 18.0774 45.0441 17.3494 43.1476 17.3494C39.715 17.3494 36.8301 20.0763 36.8301 23.4278C36.8301 26.7792 39.715 29.5061 43.1476 29.5061C45.0029 29.5061 46.3965 28.9127 47.492 27.7993C48.6146 26.7033 48.9645 25.1621 48.9645 23.9177C48.9645 23.5313 48.9315 23.1759 48.8726 22.8792H43.1476ZM85.8447 24.1684C85.5137 23.2932 84.4923 21.6796 82.412 21.6796C80.3506 21.6796 78.6342 23.2656 78.6342 25.5934C78.6342 27.7855 80.3329 29.5061 82.6099 29.5061C84.4511 29.5061 85.5137 28.4101 85.9507 27.7717L84.5842 26.8827C84.1284 27.5337 83.5076 27.965 82.6099 27.965C81.7182 27.965 81.0786 27.5659 80.6686 26.7792L86.0296 24.6135L85.8447 24.1684ZM80.3788 25.4715C80.3329 23.9626 81.5792 23.1897 82.4721 23.1897C83.1718 23.1897 83.7655 23.5313 83.9634 24.0201L80.3788 25.4715ZM76.0215 29.268H77.7837V17.7669H76.0215V29.268ZM73.1354 22.5514H73.0765C72.6807 22.0936 71.9257 21.6796 70.9691 21.6796C68.9619 21.6796 67.1266 23.4002 67.1266 25.6061C67.1266 27.7993 68.9619 29.5061 70.9691 29.5061C71.9257 29.5061 72.6807 29.0886 73.0765 28.6171H73.1354V29.1783C73.1354 30.6746 72.3167 31.4786 70.9962 31.4786C69.9196 31.4786 69.2516 30.7195 68.976 30.0812L67.4434 30.7057C67.8852 31.7431 69.0549 33.0197 70.9962 33.0197C73.0624 33.0197 74.8058 31.8328 74.8058 28.9449V21.9177H73.1354V22.5514ZM71.1199 27.965C69.9054 27.965 68.8888 26.9724 68.8888 25.6061C68.8888 24.2271 69.9054 23.2208 71.1199 23.2208C72.3167 23.2208 73.2603 24.2271 73.2603 25.6061C73.2603 26.9724 72.3167 27.965 71.1199 27.965ZM94.0952 17.7669H89.8804V29.268H91.638V24.9103H94.0952C96.0472 24.9103 97.9614 23.5313 97.9614 21.338C97.9614 19.1459 96.0424 17.7669 94.0952 17.7669ZM94.1412 23.3105H91.638V19.3667H94.1412C95.4535 19.3667 96.2026 20.4306 96.2026 21.338C96.2026 22.2282 95.4535 23.3105 94.1412 23.3105ZM105.006 21.6577C103.736 21.6577 102.415 22.2052 101.872 23.4186L103.432 24.0569C103.768 23.4186 104.385 23.2115 105.038 23.2115C105.949 23.2115 106.874 23.7464 106.888 24.6906V24.8114C106.57 24.6319 105.889 24.3663 105.052 24.3663C103.372 24.3663 101.66 25.2691 101.66 26.954C101.66 28.4952 103.036 29.4877 104.583 29.4877C105.765 29.4877 106.418 28.9667 106.828 28.3606H106.888V29.2496H108.586V24.8378C108.586 22.7987 107.026 21.6577 105.006 21.6577ZM104.794 27.9604C104.219 27.9604 103.418 27.682 103.418 26.9862C103.418 26.096 104.417 25.7544 105.281 25.7544C106.055 25.7544 106.418 25.9212 106.888 26.1409C106.75 27.2059 105.811 27.9604 104.794 27.9604ZM114.77 21.9096L112.75 26.8954H112.69L110.601 21.9096H108.706L111.844 28.877L110.053 32.754H111.89L116.725 21.9096H114.77ZM98.9273 29.268H100.69V17.7669H98.9273V29.268Z" fill="#2B374D"/>
<defs>
<linearGradient id="paint0_linear_2030_77" x1="18.7148" y1="30.8889" x2="3.27792" y2="15.0779" gradientUnits="userSpaceOnUse">
<stop stop-color="#00A0FF"/>
<stop offset="0.0066" stop-color="#00A1FF"/>
<stop offset="0.2601" stop-color="#00BEFF"/>
<stop offset="0.5122" stop-color="#00D2FF"/>
<stop offset="0.7604" stop-color="#00DFFF"/>
<stop offset="1" stop-color="#00E3FF"/>
</linearGradient>
<linearGradient id="paint1_linear_2030_77" x1="30.0569" y1="20.4989" x2="7.25407" y2="20.4989" gradientUnits="userSpaceOnUse">
<stop stop-color="#FFE000"/>
<stop offset="0.4087" stop-color="#FFBD00"/>
<stop offset="0.7754" stop-color="#FFA500"/>
<stop offset="1" stop-color="#FF9C00"/>
</linearGradient>
<linearGradient id="paint2_linear_2030_77" x1="21.5687" y1="18.384" x2="0.63498" y2="-3.05697" gradientUnits="userSpaceOnUse">
<stop stop-color="#FF3A44"/>
<stop offset="1" stop-color="#C31162"/>
</linearGradient>
<linearGradient id="paint3_linear_2030_77" x1="5.04894" y1="38.7392" x2="14.3968" y2="29.1649" gradientUnits="userSpaceOnUse">
<stop stop-color="#32A071"/>
<stop offset="0.0685" stop-color="#2DA771"/>
<stop offset="0.4762" stop-color="#15CF74"/>
<stop offset="0.8009" stop-color="#06E775"/>
<stop offset="1" stop-color="#00F076"/>
</linearGradient>
</defs>
</svg>
