<svg width="31" height="42" viewBox="0 0 31 42" fill="none" xmlns="http://www.w3.org/2000/svg">
<path d="M18.3442 1.52824C18.3442 0.817668 17.7682 0.241638 17.0576 0.241638C16.347 0.241638 15.771 0.817668 15.771 1.52824V3.44747C15.771 4.15802 16.347 4.73407 17.0576 4.73407C17.7682 4.73407 18.3442 4.15802 18.3442 3.44747V1.52824Z" fill="#0077D9"/>
<path d="M9.55288 3.19388C9.19764 2.57849 8.41073 2.36766 7.79539 2.72294C7.18 3.07824 6.96915 3.86509 7.32445 4.48048L8.28405 6.14257C8.63935 6.75791 9.42621 6.96876 10.0416 6.61346C10.6569 6.25821 10.8678 5.47131 10.5125 4.85597L9.55288 3.19388Z" fill="#0077D9"/>
<path d="M1.01488 9.5036C1.37018 8.88826 2.15703 8.6774 2.77242 9.0327L4.43451 9.99231C5.0499 10.3476 5.2607 11.1345 4.90545 11.7498C4.55015 12.3652 3.7633 12.576 3.14791 12.2207L1.48582 11.2611C0.870433 10.9058 0.659579 10.119 1.01488 9.5036Z" fill="#0077D9"/>
<path d="M18.7182 9.46749C19.9229 7.1713 21.9862 6.64014 23.9543 7.67283C25.4519 8.45855 26.4835 10.9743 25.6977 12.4718L22.108 19.3135C23.6359 19.0297 25.3172 20.3101 25.1294 22.0102C26.8901 22.0042 28.3848 23.2952 28.1453 25.1464C30.0088 25.3058 31.5102 27.8681 30.6735 29.4627L27.4824 35.5447C24.8114 40.6353 18.0473 42.7475 12.6117 39.8955C8.3182 37.6428 6.16567 34.5834 4.92559 31.0837C4.12616 28.8276 3.47624 26.795 2.74134 24.4967C2.37906 23.3638 1.99615 22.1664 1.56455 20.8457C0.71584 18.249 1.94914 16.2354 3.97499 15.4544C5.91172 14.7077 8.15336 16.0331 8.98906 18.0852L10.8692 21.9052C11.1335 22.5734 11.5382 23.1517 11.9067 22.4496L18.7182 9.46749Z" fill="#0077D9"/>
</svg>
