<svg width="48" height="49" viewBox="0 0 48 49" fill="none" xmlns="http://www.w3.org/2000/svg">
<g clip-path="url(#clip0_2030_234)">
<path d="M48 33.0505C48 27.0941 44.5829 21.7782 39.4651 19.1924C39.3062 30.613 30.0469 39.8723 18.6262 40.0312C21.212 45.149 26.528 48.5662 32.4844 48.5662C35.2771 48.5662 37.9929 47.8224 40.3792 46.4092L47.9323 48.4984L45.843 40.9453C47.2562 38.5591 48 35.8433 48 33.0505Z" fill="#17B26A"/>
<path d="M36.6563 18.8943C36.6563 8.78796 28.4345 0.566162 18.3281 0.566162C8.2218 0.566162 0 8.78796 0 18.8943C0 22.188 0.876709 25.3949 2.5415 28.2103L0.0673828 37.1547L9.01209 34.6809C11.8275 36.3457 15.0344 37.2224 18.3281 37.2224C28.4345 37.2224 36.6563 29.0006 36.6563 18.8943ZM15.5156 14.6287H12.7031C12.7031 11.5269 15.2263 9.00366 18.3281 9.00366C21.4299 9.00366 23.9531 11.5269 23.9531 14.6287C23.9531 16.203 23.2866 17.7162 22.1239 18.7797L19.7344 20.9667V23.1599H16.9219V19.7282L20.2251 16.7047C20.8154 16.1646 21.1406 15.4274 21.1406 14.6287C21.1406 13.0778 19.879 11.8162 18.3281 11.8162C16.7772 11.8162 15.5156 13.0778 15.5156 14.6287ZM16.9219 25.9724H19.7344V28.7849H16.9219V25.9724Z" fill="#17B26A"/>
</g>
<defs>
<clipPath id="clip0_2030_234">
<rect width="48" height="48" fill="white" transform="translate(0 0.566162)"/>
</clipPath>
</defs>
</svg>
