<svg width="24" height="25" viewBox="0 0 24 25" fill="none" xmlns="http://www.w3.org/2000/svg">
<path d="M12.0273 0.274902H11.9727C5.36035 0.274902 0 5.63525 0 12.2476V12.3022C0 18.9146 5.36035 24.2749 11.9727 24.2749H12.0273C18.6397 24.2749 24 18.9146 24 12.3022V12.2476C24 5.63525 18.6397 0.274902 12.0273 0.274902Z" fill="#6E7C91"/>
<path d="M15.7153 5.15723H8.28906C6.23742 5.15723 4.56836 6.82629 4.56836 8.87793V15.6719C4.56836 17.7235 6.23742 19.3926 8.28906 19.3926H15.7153C17.767 19.3926 19.436 17.7235 19.436 15.6719V8.87793C19.436 6.82629 17.767 5.15723 15.7153 5.15723ZM5.88091 8.87793C5.88091 7.55025 6.96138 6.46977 8.28906 6.46977H15.7153C17.043 6.46977 18.1235 7.55025 18.1235 8.87793V15.6719C18.1235 16.9996 17.043 18.08 15.7153 18.08H8.28906C6.96138 18.08 5.88091 16.9996 5.88091 15.6719V8.87793Z" fill="white"/>
<path d="M12.0019 15.7348C13.9098 15.7348 15.4628 14.1826 15.4628 12.2739C15.4628 10.3652 13.9106 8.81299 12.0019 8.81299C10.0932 8.81299 8.54102 10.3652 8.54102 12.2739C8.54102 14.1826 10.0932 15.7348 12.0019 15.7348ZM12.0019 10.1264C13.1866 10.1264 14.1502 11.09 14.1502 12.2747C14.1502 13.4595 13.1866 14.423 12.0019 14.423C10.8172 14.423 9.85356 13.4595 9.85356 12.2747C9.85356 11.09 10.8172 10.1264 12.0019 10.1264Z" fill="white"/>
<path d="M15.7838 9.3723C16.2974 9.3723 16.716 8.95441 16.716 8.43981C16.716 7.92522 16.2982 7.50732 15.7838 7.50732C15.2693 7.50732 14.8516 7.92522 14.8516 8.43981C14.8516 8.95441 15.2693 9.3723 15.7838 9.3723Z" fill="white"/>
</svg>
