<svg width="48" height="49" viewBox="0 0 48 49" fill="none" xmlns="http://www.w3.org/2000/svg">
<g clip-path="url(#clip0_2030_220)">
<path d="M3.25439 36.3013V44.082C3.25439 44.5554 3.63899 44.9498 4.12221 44.9498H10.1377C10.6111 44.9498 11.0055 44.5652 11.0055 44.082V30.3943L6.63688 34.7629C5.70991 35.68 4.52653 36.2126 3.25439 36.3013Z" fill="#9D174D"/>
<path d="M14.0034 30.2957V44.082C14.0034 44.5554 14.388 44.9498 14.8712 44.9498H20.8867C21.3601 44.9498 21.7545 44.5652 21.7545 44.082V35.966C20.3838 35.9364 19.1018 35.394 18.1354 34.4276L14.0034 30.2957Z" fill="#9D174D"/>
<path d="M24.7524 35.1081V44.0821C24.7524 44.5554 25.137 44.9499 25.6203 44.9499H31.6358C32.1091 44.9499 32.5036 44.5653 32.5036 44.0821V27.5247L25.6104 34.4178C25.3441 34.6841 25.0581 34.9109 24.7524 35.1081Z" fill="#9D174D"/>
<path d="M42.6708 17.3475L35.5015 24.5168V44.082C35.5015 44.5554 35.8861 44.9498 36.3693 44.9498H42.3848C42.8581 44.9498 43.2526 44.5652 43.2526 44.082V17.8899C43.0554 17.7223 42.9074 17.5743 42.799 17.4757L42.6708 17.3475Z" fill="#9D174D"/>
<path d="M47.5915 4.64598C47.3056 4.34028 46.8717 4.1825 46.3194 4.1825C46.2701 4.1825 46.2109 4.1825 46.1616 4.1825C43.361 4.31069 40.5702 4.44876 37.7695 4.57695C37.3948 4.59668 36.882 4.6164 36.4776 5.02072C36.3494 5.14892 36.2508 5.29684 36.1719 5.47435C35.7578 6.37175 36.3396 6.95357 36.6157 7.22969L37.3159 7.93972C37.7991 8.4328 38.2922 8.92587 38.7852 9.40908L21.8629 26.3413L14.2597 18.738C13.8061 18.2844 13.1947 18.028 12.5438 18.028C11.893 18.028 11.2914 18.2844 10.8378 18.738L0.710027 28.8559C-0.236676 29.8026 -0.236676 31.3312 0.710027 32.2779L1.16366 32.7315C1.61728 33.1851 2.2287 33.4415 2.87955 33.4415C3.53041 33.4415 4.13196 33.1851 4.58559 32.7315L12.5438 24.7733L20.147 32.3765C20.6006 32.8301 21.2121 33.0865 21.8629 33.0865C22.5138 33.0865 23.1153 32.8301 23.5788 32.3765L42.6707 13.2846L44.8303 15.4345C45.0867 15.6908 45.4417 16.0459 45.9841 16.0459C46.2109 16.0459 46.4377 15.9867 46.6744 15.8585C46.8322 15.7697 46.9703 15.6711 47.0886 15.5528C47.5126 15.1287 47.5915 14.5864 47.6113 14.1623C47.6902 12.3478 47.7789 10.5333 47.8677 8.70892L47.9959 5.97729C48.0254 5.40532 47.8972 4.96155 47.5915 4.64598Z" fill="#9D174D"/>
</g>
<defs>
<clipPath id="clip0_2030_220">
<rect width="48" height="48" fill="white" transform="translate(0 0.566162)"/>
</clipPath>
</defs>
</svg>
