<svg width="76" height="63" viewBox="0 0 76 63" fill="none" xmlns="http://www.w3.org/2000/svg">
<g clip-path="url(#clip0_2030_94)">
<path d="M49.0223 28.9554C49.036 29.2404 48.8296 29.4915 48.5269 29.5118L47.7701 29.5729C47.0614 29.634 46.3252 30.6383 46.05 31.0929V32.0769C46.05 33.6919 45.7129 35.3273 44.9216 36.7523C44.5226 37.4784 43.9859 38.1977 43.3323 38.7338C42.7199 39.2428 41.7567 39.2699 40.9861 39.3649C39.9747 39.4735 38.9633 39.5074 37.945 39.4599C37.5459 39.4463 37.14 39.426 36.7547 39.3988H36.6721C36.4932 39.3853 36.3212 39.3649 36.1561 39.3513C36.0942 39.3513 36.046 39.3378 35.9772 39.3378C35.819 39.3242 35.6538 39.3038 35.4956 39.2903C34.7112 39.1817 34.0301 39.0527 33.4521 38.4963C33.1494 38.2113 32.8604 37.8788 32.6127 37.5259C31.7596 36.3384 31.2779 34.9269 31.0991 33.4951C31.0371 33.0201 31.0027 32.5451 31.0027 32.0701V31.0861C30.7275 30.6247 29.9913 29.6272 29.2826 29.5661L28.5258 29.505C28.2231 29.4915 28.0098 29.2336 28.0304 28.9486C28.0648 28.6636 28.3194 28.4396 28.6084 28.46L29.3652 28.5211C30.0051 28.5822 30.5693 28.9622 31.0027 29.3761V28.65C30.8445 28.65 30.7 28.5075 30.7 28.3514C30.7 28.175 30.8445 28.0529 31.0027 28.0529H46.0362C46.1945 28.0529 46.339 28.1818 46.339 28.3514C46.339 28.5075 46.1945 28.65 46.0362 28.65V29.3761C46.4697 28.9622 47.0339 28.5822 47.6737 28.5211L48.4306 28.46C48.7195 28.4464 48.9741 28.6636 49.0085 28.9486L49.0223 28.9554Z" fill="#F2622C"/>
<path d="M40.2774 27.2453L32.5439 26.7839L32.5577 26.3903C32.5577 26.3903 33.9407 25.5964 35.9497 25.2978C37.3946 25.0942 38.7982 25.0739 39.5343 25.0942L38.922 23.8117L39.4036 23.4453L40.0297 23.4792L40.8347 23.5267L41.2682 23.9542L40.4976 25.1417C41.2063 25.2028 42.6649 25.3792 44.1648 25.7932C46.1257 26.3292 47.3986 27.2657 47.3986 27.2657L47.3848 27.6796L40.2774 27.2521V27.2453Z" fill="#F2622C"/>
<path d="M33.7619 21.2195C33.6656 21.6334 33.4867 22.027 33.3284 22.407C33.2459 22.5834 32.9913 22.4206 33.0739 22.2645C33.2528 21.8845 33.4936 21.5384 33.7619 21.2195Z" fill="#F2622C"/>
<path d="M31.2712 27.4489C30.6864 27.3607 30.1222 27.1707 29.5786 26.9332C29.1589 26.75 28.7048 26.4853 28.4709 26.0782C28.3677 25.9017 28.3608 25.6982 28.4227 25.5014C28.5053 25.2571 28.6911 25.2096 28.9319 25.2707C29.386 25.386 29.8263 25.7592 30.0947 26.1257C30.1222 26.1664 30.1841 26.1257 30.1635 26.085C29.9158 25.5421 29.8263 24.9178 29.7988 24.3274C29.7713 23.771 29.8126 23.2078 30.0603 22.6988C30.074 22.6717 30.0396 22.6445 30.019 22.6649C29.6818 23.0652 29.7025 23.771 29.7162 24.2596C29.7369 24.8839 29.8332 25.5489 30.0947 26.1189C30.1153 26.1053 30.1359 26.0917 30.1635 26.0782C29.8676 25.671 29.4066 25.2978 28.9112 25.1757C28.5053 25.0739 28.2851 25.4199 28.3058 25.7932C28.3333 26.275 28.8424 26.6278 29.2277 26.8382C29.8401 27.1843 30.5763 27.3811 31.2781 27.4353L31.2712 27.4489Z" fill="#F2622C"/>
<path d="M28.0581 24.9721C28.0581 25.1756 27.8998 25.3385 27.7072 25.3521C24.3771 25.4131 21.7282 28.1411 21.8038 31.4254C21.8038 31.629 21.6456 31.7919 21.4323 31.8054C21.2259 31.8054 21.0608 31.6494 21.0608 31.439C20.9782 27.7611 23.9367 24.7006 27.6865 24.6192C27.8792 24.6192 28.0581 24.7753 28.0581 24.9653V24.9721Z" fill="#F2622C"/>
<path d="M34.8696 24.6328C35.8398 24.1306 36.8649 23.4724 37.4635 22.5495C37.4841 22.5156 37.436 22.4749 37.4016 22.502C37.0163 22.8888 36.6585 23.296 36.2457 23.6556C35.826 24.0221 35.365 24.3749 34.8696 24.6328Z" fill="#F2622C"/>
<path d="M44.9216 20.5341C44.9216 20.7241 44.7634 20.8802 44.5501 20.8802C44.3574 20.8802 44.1785 20.7241 44.1785 20.5341C44.1785 17.3651 41.5709 14.7932 38.3715 14.7932C38.1651 14.7932 38 14.6372 38 14.4268C38 14.2164 38.1582 14.0604 38.3715 14.0604C41.9906 14.0604 44.9147 16.9647 44.9147 20.5273L44.9216 20.5341Z" fill="#F2622C"/>
<path d="M33.872 20.344C33.8857 20.6291 33.8376 20.9276 33.7619 21.2194C33.4867 21.5384 33.2459 21.8844 33.0738 22.2645C33.3147 21.7284 33.5692 21.138 33.6174 20.5341C33.6312 20.344 33.6518 19.998 33.4247 19.8826C33.1358 19.7537 32.7367 20.0862 32.5372 20.2762C32.09 20.6901 31.7528 21.2126 31.4914 21.7487C30.7689 23.3977 30.7827 25.3452 31.5395 26.9467C30.6726 25.2842 30.5281 23.3298 31.3331 21.6062C31.5739 21.0701 31.9111 20.5408 32.3445 20.1337C32.5991 19.8962 32.9706 19.5976 33.3559 19.6451C33.7275 19.679 33.8513 20.0115 33.872 20.344Z" fill="#F2622C"/>
<path d="M37.1262 19.9505C37.3533 20.222 37.3189 20.6495 37.2707 20.9684C37.0781 21.9388 36.3832 22.7599 35.6814 23.4113C35.2479 23.8049 34.7938 24.1578 34.3122 24.4767C33.8443 24.7753 33.3627 25.0806 32.8192 25.2231C32.6609 25.2706 32.5784 25.0467 32.7091 24.9721C32.8192 24.8906 32.9361 24.8296 33.0462 24.7685C33.5416 24.4699 34.0439 24.212 34.5255 23.866C35.0071 23.5335 35.4543 23.167 35.8603 22.7395C36.2112 22.3731 36.5483 21.9659 36.7753 21.5045C36.9336 21.1584 37.0987 20.663 36.9542 20.2695C36.7478 19.6859 35.6539 20.188 35.3442 20.3645C34.4773 20.8259 33.7342 21.5384 33.3352 22.4274C33.4934 22.0474 33.6723 21.6538 33.7686 21.2398C33.9269 21.0363 34.1195 20.8463 34.3328 20.6834C34.9108 20.2084 35.6814 19.713 36.452 19.713C36.7065 19.713 36.968 19.7741 37.1262 19.9641V19.9505Z" fill="#F2622C"/>
<path d="M74.8235 34.0104L41.9768 1.61465C39.7889 -0.543261 36.218 -0.543261 34.0369 1.61465L1.1903 34.0104C0.419699 34.7704 0 35.7544 0 36.8333C0 37.9123 0.419699 38.8759 1.1903 39.6427C1.94713 40.3891 2.95854 40.803 4.03875 40.803C5.11896 40.803 6.13036 40.3891 6.8872 39.6427L12.8043 33.7254V62.6332C12.8043 62.8368 12.9625 62.9996 13.1552 62.9996H23.7853C24.088 62.9996 24.377 62.9657 24.6728 62.9046H51.1689C51.4579 62.9657 51.7469 62.9996 52.0565 62.9996H62.8586C63.0512 62.9996 63.2301 62.8435 63.2301 62.6332L63.1682 33.739L69.0027 39.5137C69.8215 40.3077 70.9636 40.7691 72.1057 40.7488C73.2135 40.7352 74.2111 40.3077 74.9335 39.5409C75.6422 38.7944 76.0138 37.8308 76.0138 36.8265C76.0138 35.7611 75.5941 34.7636 74.8372 34.0036L74.8235 34.0104ZM50.4052 40.8777C42.3346 41.2916 34.2296 41.3527 26.1452 41.1152C22.0445 39.9887 19.1204 36.2972 19.1204 31.9814C19.1204 27.082 22.994 22.9291 27.9616 22.5287C28.1543 22.5151 28.2987 22.3523 28.2987 22.1623C28.3332 16.9779 32.6402 12.7435 37.9106 12.7435C43.1809 12.7435 47.4948 16.9779 47.5224 22.1623C47.5224 22.3523 47.6806 22.5083 47.8595 22.5287C52.8271 22.9223 56.7213 27.082 56.7213 31.9814C56.7213 36.0394 54.1137 39.5477 50.4052 40.8777Z" fill="#38BFBE"/>
<path d="M21.9002 55.5695C21.0745 55.5356 20.531 55.1149 20.2695 54.3141C20.0081 53.5134 20.1457 52.3394 20.6961 50.799C21.2465 49.2519 21.336 48.0847 20.9713 47.2772C20.7236 46.7207 20.3314 46.4561 19.7948 46.49C19.2719 46.4968 18.8247 46.8632 18.4531 47.5825C18.0816 48.3018 17.9096 49.7065 17.9165 51.8237C18.0541 53.8323 18.5426 55.2438 19.382 56.0445C20.1732 56.791 20.9576 57.1642 21.735 57.1574C21.797 57.1574 21.8589 57.1574 21.9139 57.1506L21.9277 55.5627C21.9277 55.5627 21.907 55.5627 21.8933 55.5627L21.9002 55.5695Z" fill="#2C4F50"/>
<path d="M26.9503 55.5763C26.8953 55.5763 26.8471 55.5763 26.7921 55.5695C26.6888 55.5559 26.5788 55.5424 26.4756 55.5152C26.3104 55.4677 26.1591 55.4134 26.0146 55.332C25.8632 55.2574 25.7256 55.1556 25.5949 55.0334C25.4642 54.9181 25.3541 54.7823 25.2577 54.6331C25.5054 54.1852 25.6706 53.7577 25.76 53.3573C25.8494 52.9502 25.877 52.5905 25.8357 52.2716C25.7875 51.9323 25.6843 51.6608 25.5192 51.4708C25.3472 51.274 25.1545 51.1519 24.9412 51.0976C24.728 51.0433 24.5009 51.0501 24.267 51.1248C24.033 51.1994 23.8266 51.3351 23.6477 51.5251C23.462 51.7151 23.3313 51.973 23.2418 52.2784C23.1524 52.5905 23.1386 52.9434 23.2074 53.3573C23.2624 53.6966 23.2693 53.9952 23.2212 54.253C23.173 54.5109 23.0836 54.7416 22.9597 54.9248C22.8359 55.1081 22.6845 55.2573 22.4919 55.3659C22.313 55.4677 22.1134 55.5356 21.907 55.5695H21.8933H21.7625L21.7488 57.1642V57.1778C21.8107 57.1778 21.8726 57.1642 21.9277 57.1574C22.1341 57.137 22.3198 57.1031 22.4987 57.0692C22.7258 57.0217 22.946 56.947 23.1524 56.852C23.3588 56.757 23.5583 56.6213 23.751 56.4517C23.9436 56.282 24.1431 56.0717 24.3495 55.807C24.4665 55.9834 24.611 56.1531 24.7899 56.3295C24.9688 56.4992 25.1683 56.6552 25.3953 56.7842C25.6224 56.9131 25.8701 57.0149 26.1453 57.0895C26.3311 57.1438 26.5375 57.1642 26.7508 57.1642H26.7714C26.854 57.1642 26.9365 57.171 27.026 57.1642V55.5695H26.9641L26.9503 55.5763ZM25.3403 48.5529C25.2784 48.4036 25.1889 48.2679 25.072 48.1593C24.9619 48.0508 24.8243 47.9558 24.6729 47.8947C24.5215 47.8336 24.3564 47.7997 24.1844 47.7997C24.0124 47.7997 23.8473 47.8336 23.6959 47.8947C23.5445 47.9625 23.4138 48.0508 23.3037 48.1593C23.1936 48.2679 23.1042 48.4036 23.0423 48.5529C22.9735 48.7022 22.9391 48.8651 22.9391 49.0347C22.9391 49.2044 22.9735 49.3672 23.0423 49.5165C23.1042 49.6658 23.1936 49.7947 23.3037 49.9033C23.4138 50.0119 23.5514 50.1001 23.6959 50.1612C23.8473 50.229 24.0124 50.263 24.1844 50.263C24.3564 50.263 24.5215 50.229 24.6729 50.1612C24.8243 50.1001 24.9619 50.0119 25.072 49.9033C25.1821 49.7947 25.2784 49.659 25.3403 49.5165C25.4091 49.3672 25.4435 49.2044 25.4435 49.0347C25.4435 48.8651 25.4091 48.7022 25.3403 48.5529Z" fill="#2C4F50"/>
<path d="M28.3333 48.8379C28.2782 48.709 28.1957 48.5936 28.0993 48.4986C28.003 48.4036 27.8861 48.3222 27.7553 48.2679C27.6246 48.2136 27.487 48.1797 27.3356 48.1797C27.1843 48.1797 27.0467 48.2068 26.9159 48.2679C26.7783 48.3222 26.6682 48.4036 26.5719 48.4986C26.4756 48.5936 26.393 48.709 26.338 48.8379C26.2761 48.9668 26.2485 49.1094 26.2485 49.2519C26.2485 49.3944 26.2761 49.5369 26.338 49.6726C26.393 49.8015 26.4756 49.9169 26.5719 50.0119C26.6682 50.1137 26.7852 50.1883 26.9159 50.2426C27.0467 50.2969 27.1843 50.3308 27.3356 50.3308C27.487 50.3308 27.6246 50.3037 27.7553 50.2426C27.8861 50.1815 28.003 50.1069 28.0993 50.0119C28.1957 49.9169 28.2782 49.8015 28.3333 49.6726C28.3952 49.5369 28.4227 49.4011 28.4227 49.2519C28.4227 49.1026 28.3952 48.9668 28.3333 48.8379ZM31.9454 55.5763C31.911 55.5763 31.8766 55.5763 31.8354 55.5763C31.7115 55.5695 31.5877 55.5491 31.4638 55.5152C31.3056 55.4677 31.1542 55.4134 31.0028 55.332C30.8515 55.2573 30.7139 55.1556 30.5831 55.0334C30.4524 54.9181 30.3492 54.7823 30.2529 54.633C30.5006 54.1852 30.6657 53.7577 30.7551 53.3573C30.8446 52.9502 30.8652 52.5905 30.8239 52.2716C30.7758 51.9323 30.6726 51.6608 30.5075 51.4708C30.3423 51.274 30.1497 51.1519 29.9295 51.0976C29.7093 51.0433 29.4823 51.0501 29.2552 51.1248C29.0213 51.1994 28.8149 51.3351 28.636 51.5251C28.4571 51.7151 28.3195 51.973 28.2301 52.2784C28.1406 52.5905 28.1337 52.9434 28.2025 53.3573C28.2576 53.6966 28.2576 53.9952 28.2094 54.253C28.1613 54.5109 28.0718 54.7416 27.948 54.9248C27.8241 55.1081 27.6728 55.2573 27.487 55.3659C27.3012 55.4745 27.1017 55.5424 26.8815 55.5695H26.7508L26.737 57.171H26.7577C26.8471 57.1642 26.9366 57.1506 27.0122 57.1438C27.1843 57.1235 27.3425 57.0963 27.487 57.0692C27.714 57.0217 27.9342 56.947 28.1337 56.852C28.3402 56.757 28.5397 56.6213 28.7323 56.4517C28.925 56.282 29.1245 56.0717 29.3378 55.807C29.4479 55.9834 29.5992 56.1531 29.7713 56.3295C29.9501 56.4992 30.1497 56.6552 30.3767 56.7842C30.6038 56.9131 30.8515 57.0149 31.1267 57.0895C31.3469 57.1506 31.5739 57.1845 31.8216 57.1777C31.8835 57.1777 31.9454 57.1777 32.0074 57.171V55.5763H31.9454ZM30.7551 48.8651C30.7001 48.7361 30.6175 48.6208 30.5212 48.5258C30.4249 48.424 30.3079 48.3493 30.1772 48.295C30.0465 48.2408 29.902 48.2068 29.7575 48.2068C29.613 48.2068 29.4616 48.234 29.3309 48.295C29.2002 48.3561 29.0832 48.4308 28.9869 48.5258C28.8906 48.6208 28.808 48.7361 28.753 48.8651C28.6979 49.0008 28.6635 49.1365 28.6635 49.2858C28.6635 49.4351 28.691 49.5708 28.753 49.6997C28.8149 49.8287 28.8906 49.944 28.9869 50.039C29.0832 50.134 29.2002 50.2154 29.3309 50.2697C29.4616 50.324 29.6061 50.358 29.7575 50.358C29.9089 50.358 30.0465 50.3308 30.1772 50.2697C30.3079 50.2154 30.4249 50.134 30.5212 50.039C30.6175 49.944 30.7001 49.8287 30.7551 49.6997C30.8102 49.5708 30.8446 49.4283 30.8446 49.2858C30.8446 49.1433 30.8171 49.0008 30.7551 48.8651Z" fill="#2C4F50"/>
<path d="M37.9243 51.559C37.8486 51.2197 37.7317 50.9008 37.5872 50.6158C37.4427 50.324 37.2707 50.0661 37.0574 49.8286C36.851 49.5979 36.624 49.4011 36.3831 49.2383C36.046 49.0211 35.702 48.8718 35.358 48.804C35.014 48.7293 34.6768 48.7225 34.3466 48.77C34.0232 48.8243 33.7136 48.9261 33.4246 49.0822C33.1356 49.245 32.8811 49.4418 32.6678 49.6929C32.4476 49.9372 32.2687 50.2222 32.138 50.5479C32.0073 50.8669 31.9316 51.2129 31.9178 51.5862C31.9041 51.9255 31.9453 52.2376 32.0485 52.5294C32.1449 52.8212 32.2825 53.0791 32.4614 53.3098C32.6402 53.5405 32.8535 53.7441 33.1012 53.9137C33.3489 54.0834 33.6104 54.2191 33.8925 54.3209C34.1746 54.4227 34.4704 54.4905 34.78 54.5245C35.0896 54.5516 35.3993 54.5448 35.702 54.5041C35.5644 54.667 35.3786 54.8095 35.1309 54.9452C34.8832 55.0809 34.5943 55.1895 34.2571 55.2845C33.92 55.3795 33.5484 55.4541 33.1425 55.5016C32.7297 55.5491 32.2962 55.5763 31.8421 55.5695V55.583L31.8284 57.1913C32.4338 57.1981 33.0049 57.1506 33.5416 57.0488C34.0782 56.947 34.5874 56.7909 35.0415 56.5941C35.5025 56.4041 35.9084 56.1598 36.2799 55.8816C36.6446 55.6034 36.9611 55.2913 37.2225 54.952C37.484 54.6127 37.6835 54.2462 37.828 53.8527C37.9656 53.4591 38.0413 53.0519 38.0482 52.638C38.0482 52.2648 38.0138 51.9051 37.9381 51.5658L37.9243 51.559ZM34.7456 53.4659C34.4842 53.3098 34.2846 53.1537 34.1402 52.9976C34.0026 52.8416 33.9131 52.6991 33.8718 52.5565C33.8374 52.4208 33.8374 52.3055 33.8718 52.2308C33.9337 52.0612 34.0232 51.9526 34.147 51.9051C34.264 51.8576 34.3947 51.8576 34.5392 51.8983C34.6768 51.9458 34.8213 52.0273 34.9658 52.1562C35.1103 52.2783 35.241 52.4276 35.358 52.604C35.4749 52.7805 35.5713 52.9773 35.6469 53.1944C35.7226 53.4048 35.757 53.6287 35.7502 53.8527C35.3373 53.7509 35.0002 53.6219 34.7387 53.4659H34.7456ZM35.4612 46.775C35.4061 46.6461 35.3236 46.5307 35.2272 46.4357C35.1309 46.3407 35.014 46.2593 34.8832 46.205C34.7525 46.1507 34.6149 46.1168 34.4635 46.1168C34.3122 46.1168 34.1746 46.1439 34.0438 46.205C33.9131 46.2593 33.7961 46.3407 33.6998 46.4357C33.6035 46.5307 33.5209 46.6461 33.4659 46.775C33.404 46.9039 33.3764 47.0464 33.3764 47.1889C33.3764 47.3314 33.404 47.4807 33.4659 47.6097C33.5209 47.7386 33.6035 47.8539 33.6998 47.9489C33.7961 48.0439 33.9131 48.1186 34.0438 48.1797C34.1746 48.234 34.3122 48.2679 34.4635 48.2679C34.6149 48.2679 34.7525 48.2407 34.8832 48.1797C35.0208 48.1186 35.1309 48.0439 35.2272 47.9489C35.3236 47.8539 35.4061 47.7386 35.4612 47.6097C35.5231 47.4807 35.5506 47.3382 35.5506 47.1889C35.5506 47.0396 35.5231 46.9039 35.4612 46.775Z" fill="#2C4F50"/>
<path d="M42.9195 55.5695C42.0938 55.5356 41.5503 55.1149 41.2888 54.3141C41.0274 53.5134 41.1719 52.3394 41.7154 50.799C42.2658 49.2519 42.3622 48.0847 41.9906 47.2772C41.7429 46.7207 41.3576 46.4561 40.821 46.49C40.2912 46.4968 39.844 46.8632 39.4793 47.5825C39.1078 48.3018 38.9289 49.7065 38.9426 51.8237C39.0802 53.8323 39.5687 55.2438 40.4081 56.0445C41.1994 56.791 41.9837 57.1642 42.7681 57.1574C42.8231 57.1574 42.8713 57.1574 42.9195 57.1506H42.9401L42.9539 55.5627C42.9539 55.5627 42.9263 55.5627 42.9195 55.5627V55.5695Z" fill="#2C4F50"/>
<path d="M47.9696 55.5762C47.9215 55.5762 47.8802 55.5762 47.8389 55.5762C47.7219 55.5627 47.6119 55.5491 47.4949 55.5152C47.3298 55.4677 47.1784 55.4134 47.027 55.3319C46.8757 55.2573 46.7381 55.1555 46.6142 55.0334C46.4835 54.918 46.3734 54.7823 46.2771 54.633C46.5248 54.1851 46.6899 53.7576 46.7793 53.3573C46.8688 52.9501 46.8963 52.5905 46.8481 52.2715C46.8 51.9322 46.6968 51.6608 46.5316 51.4708C46.3665 51.274 46.1739 51.1519 45.9537 51.0976C45.7335 51.0433 45.5065 51.0501 45.2794 51.1247C45.0524 51.1994 44.8391 51.3351 44.6602 51.5251C44.4813 51.7151 44.3437 51.9729 44.2543 52.2783C44.1648 52.5905 44.1579 52.9433 44.2267 53.3573C44.2818 53.6966 44.2818 53.9951 44.2336 54.253C44.1855 54.5109 44.096 54.7416 43.9722 54.9248C43.8483 55.108 43.697 55.2573 43.5112 55.3659C43.3323 55.4677 43.1328 55.5355 42.9195 55.5695H42.9057H42.775L42.7612 57.1641V57.1777C42.8163 57.1777 42.8644 57.1641 42.9126 57.1574H42.9332C43.1396 57.137 43.3323 57.1031 43.5112 57.0691C43.7382 57.0216 43.9584 56.947 44.1579 56.852C44.3643 56.757 44.5639 56.6213 44.7634 56.4516C44.956 56.282 45.1556 56.0716 45.362 55.807C45.4721 55.9834 45.6234 56.153 45.7954 56.3295C45.9743 56.4991 46.1739 56.6552 46.4009 56.7841C46.628 56.9131 46.8757 57.0148 47.1509 57.0895C47.3435 57.1438 47.5568 57.1777 47.7701 57.1777C47.8595 57.1777 47.9421 57.1777 48.0247 57.1777V55.583H47.9627L47.9696 55.5762ZM44.9973 58.2363C44.9423 58.1074 44.8597 57.992 44.7634 57.897C44.6671 57.802 44.5501 57.7274 44.4194 57.6663C44.2887 57.612 44.1511 57.5781 43.9997 57.5781C43.8483 57.5781 43.7107 57.6052 43.58 57.6663C43.4493 57.7274 43.3323 57.802 43.236 57.897C43.1396 57.9988 43.0571 58.1074 43.002 58.2363C42.9401 58.3652 42.9126 58.5077 42.9126 58.657C42.9126 58.8063 42.9401 58.942 43.002 59.071C43.0571 59.1999 43.1396 59.3153 43.236 59.4103C43.3323 59.5053 43.4493 59.5867 43.58 59.641C43.7107 59.6953 43.8483 59.7292 43.9997 59.7292C44.1511 59.7292 44.2887 59.702 44.4194 59.641C44.557 59.5867 44.6671 59.5053 44.7634 59.4103C44.8597 59.3153 44.9423 59.1999 44.9973 59.071C45.0593 58.942 45.0868 58.7995 45.0868 58.657C45.0868 58.5145 45.0593 58.3652 44.9973 58.2363ZM47.4123 58.2702C47.3573 58.1413 47.2747 58.0259 47.1784 57.9309C47.0821 57.8359 46.9651 57.7545 46.8344 57.7002C46.7037 57.6459 46.5592 57.612 46.4147 57.612C46.2702 57.612 46.1257 57.6391 45.9881 57.7002C45.8574 57.7545 45.7404 57.8359 45.6441 57.9309C45.5409 58.0259 45.4652 58.1413 45.4102 58.2702C45.3551 58.3992 45.3207 58.5349 45.3207 58.6842C45.3207 58.8335 45.3482 58.9692 45.4102 59.1049C45.4721 59.2338 45.5478 59.3492 45.6441 59.4442C45.7404 59.546 45.8574 59.6206 45.9881 59.6749C46.1257 59.7292 46.2633 59.7631 46.4147 59.7631C46.566 59.7631 46.7037 59.736 46.8344 59.6749C46.9651 59.6138 47.0821 59.5392 47.1784 59.4442C47.2747 59.3492 47.3573 59.2338 47.4123 59.1049C47.4674 58.9692 47.5018 58.8335 47.5018 58.6842C47.5018 58.5349 47.4743 58.3992 47.4123 58.2702Z" fill="#2C4F50"/>
<path d="M57.8706 52.3665C57.7261 52.0204 57.5197 51.7083 57.2651 51.4436C57.0037 51.179 56.694 50.9754 56.3431 50.8329C55.9854 50.6904 55.5932 50.6565 55.1735 50.7243C54.8432 50.7786 54.5267 50.894 54.2309 51.0704C53.9281 51.2469 53.6461 51.4708 53.3777 51.7287C53.1163 51.9865 52.8686 52.2783 52.6484 52.604C52.4282 52.9297 52.2287 53.2623 52.0567 53.6151C51.8847 53.9612 51.7402 54.3141 51.6301 54.6737C51.52 55.0334 51.4375 55.3727 51.3893 55.6984C51.348 55.6848 51.2861 55.6509 51.2104 55.6102C51.1347 55.5695 51.0453 55.5016 50.9558 55.4066C51.1554 54.9112 51.2655 54.4769 51.293 54.1037C51.3205 53.7305 51.293 53.4183 51.2035 53.1673C51.1141 52.9162 50.9903 52.7194 50.8182 52.5837C50.6462 52.448 50.4536 52.3665 50.2541 52.3326C50.0545 52.3055 49.8481 52.3258 49.6486 52.4005C49.4491 52.4819 49.2771 52.6108 49.1326 52.7805C48.9881 52.9569 48.8849 53.1876 48.8298 53.459C48.7679 53.7305 48.7817 54.0562 48.8642 54.4226C48.9468 54.6398 48.9674 54.823 48.9262 54.9655C48.8918 55.108 48.8092 55.2302 48.6922 55.3116C48.5821 55.3998 48.4377 55.4609 48.2725 55.4948C48.128 55.5287 47.9836 55.5491 47.8322 55.5627C47.8115 55.5627 47.7909 55.5627 47.7703 55.5627V57.1777C47.9492 57.1709 48.1418 57.1573 48.3344 57.1302C48.5271 57.1031 48.7266 57.0623 48.9124 57.0013C49.105 56.9402 49.2839 56.8723 49.4491 56.7841C49.6211 56.6959 49.7587 56.5873 49.8756 56.4584C49.9376 56.5534 50.0339 56.6552 50.1715 56.7502C50.3022 56.852 50.4467 56.9402 50.605 57.0216C50.7563 57.0963 50.9077 57.1641 51.0591 57.2184C51.2104 57.2727 51.3274 57.2998 51.4237 57.3066C51.4375 57.4695 51.4719 57.6324 51.5132 57.802C51.5544 57.9717 51.6164 58.1277 51.692 58.2634C51.7677 58.4059 51.8709 58.5145 51.9879 58.6027C52.1049 58.691 52.2494 58.7385 52.4214 58.7385C52.6002 58.7385 52.7516 58.691 52.8686 58.596C52.9855 58.5009 53.0819 58.3788 53.1438 58.2295C53.2057 58.087 53.247 57.9309 53.2676 57.7613C53.2883 57.5916 53.2883 57.4356 53.2676 57.2931C53.9557 57.2863 54.5955 57.1981 55.1804 57.0352C55.7721 56.8656 56.2812 56.6213 56.7147 56.3023C57.1413 55.9766 57.4853 55.5762 57.733 55.0944C57.9807 54.6126 58.0976 54.0494 58.0976 53.4115C58.0976 53.0587 58.0288 52.7058 57.8843 52.3597L57.8706 52.3665ZM55.717 54.6941C55.5725 54.9248 55.3455 55.1623 55.0359 55.3862C54.9052 55.4812 54.7744 55.5559 54.6231 55.6102C54.4786 55.6712 54.3272 55.7187 54.169 55.7527C54.0038 55.7866 53.8387 55.8205 53.6736 55.8477C53.5016 55.868 53.3296 55.8952 53.1438 55.9087C53.2676 55.3184 53.4259 54.8366 53.6117 54.4566C53.7974 54.0766 53.997 53.7848 54.2171 53.5744C54.4304 53.364 54.6368 53.2351 54.8432 53.1876C55.0565 53.1333 55.2354 53.1333 55.4005 53.1876C55.5657 53.2487 55.6964 53.3505 55.7996 53.4998C55.8959 53.6491 55.9441 53.8255 55.9372 54.0291C55.9303 54.2326 55.8546 54.4498 55.717 54.6873V54.6941ZM53.3846 49.0754C53.3296 48.96 53.2608 48.8514 53.1644 48.7632C53.075 48.675 52.9649 48.6004 52.8479 48.5461C52.7241 48.4918 52.5934 48.4714 52.4558 48.4714C52.3182 48.4714 52.1874 48.4986 52.0636 48.5461C51.9397 48.6004 51.8365 48.675 51.7471 48.7632C51.6508 48.8582 51.582 48.96 51.5269 49.0754C51.4719 49.1975 51.4444 49.3265 51.4444 49.4622C51.4444 49.5979 51.4719 49.7268 51.5269 49.849C51.582 49.9643 51.6508 50.0729 51.7471 50.1611C51.8365 50.2493 51.9397 50.324 52.0636 50.3783C52.1874 50.4325 52.3182 50.4529 52.4558 50.4529C52.5934 50.4529 52.731 50.4258 52.8479 50.3783C52.9718 50.324 53.075 50.2493 53.1644 50.1611C53.2608 50.0661 53.3296 49.9643 53.3846 49.849C53.4396 49.7268 53.4603 49.5979 53.4603 49.4622C53.4603 49.3265 53.4328 49.1975 53.3846 49.0754Z" fill="#2C4F50"/>
</g>
<defs>
<clipPath id="clip0_2030_94">
<rect width="76" height="63" fill="white"/>
</clipPath>
</defs>
</svg>
