<svg width="22" height="16" viewBox="0 0 22 16" fill="none" xmlns="http://www.w3.org/2000/svg">
<path d="M2 2.39966L10.1818 8.92259C10.4068 9.06882 10.6981 9.14966 11 9.14966C11.3019 9.14966 11.5932 9.06882 11.8182 8.92259L20 2.39966M3.02273 1.27466H18.9773C19.2485 1.27466 19.5087 1.38578 19.7005 1.58357C19.8922 1.78136 20 2.04963 20 2.32935V12.6653C20 12.9423 19.9471 13.2166 19.8443 13.4725C19.7415 13.7284 19.5908 13.961 19.4009 14.1568C19.211 14.3527 18.9855 14.5081 18.7373 14.6141C18.4891 14.7201 18.2232 14.7747 17.9545 14.7747H4.04545C3.77684 14.7747 3.51086 14.7201 3.26269 14.6141C3.01453 14.5081 2.78904 14.3527 2.5991 14.1568C2.40916 13.961 2.25849 13.7284 2.1557 13.4725C2.05291 13.2166 2 12.9423 2 12.6653V2.32935C2 2.04963 2.10775 1.78136 2.29955 1.58357C2.49135 1.38578 2.75148 1.27466 3.02273 1.27466Z" stroke="#8892AA" stroke-width="2.1" stroke-linejoin="round"/>
</svg>
