<svg width="48" height="49" viewBox="0 0 48 49" fill="none" xmlns="http://www.w3.org/2000/svg">
<path d="M18 24.2749C18 19.3719 20.363 15.0319 24 12.2949C21.491 10.4069 18.382 9.2749 15 9.2749C6.716 9.2749 0 15.9909 0 24.2749C0 32.5589 6.716 39.2749 15 39.2749C18.382 39.2749 21.491 38.1419 24 36.2549C20.363 33.5169 18 29.1779 18 24.2749Z" fill="#F44336"/>
<path d="M33 9.2749C29.618 9.2749 26.509 10.4069 24 12.2949C27.637 15.0319 30 19.3719 30 24.2749C30 29.1779 27.637 33.5169 24 36.2549C26.509 38.1429 29.618 39.2749 33 39.2749C41.284 39.2749 48 32.5589 48 24.2749C48 15.9909 41.284 9.2749 33 9.2749Z" fill="#FF9800"/>
<path d="M24 36.2544C27.3137 36.2544 30 30.8908 30 24.2744C30 17.6581 27.3137 12.2944 24 12.2944C20.6863 12.2944 18 17.6581 18 24.2744C18 30.8908 20.6863 36.2544 24 36.2544Z" fill="#FF7300"/>
</svg>
