<svg width="48" height="49" viewBox="0 0 48 49" fill="none" xmlns="http://www.w3.org/2000/svg">
<path fill-rule="evenodd" clip-rule="evenodd" d="M23.9999 8.96922C28.5666 8.96922 32.2687 12.6713 32.2687 17.238C32.2687 21.8047 28.5666 25.5067 23.9999 25.5067C19.4331 25.5067 15.7312 21.8047 15.7312 17.238C15.7312 12.6714 19.4331 8.96922 23.9999 8.96922ZM24.7499 32.4212V47.9386L40.0565 41.987V32.2832L28.088 36.9369C27.7399 37.0715 27.3526 36.9277 27.1716 36.6143L24.7499 32.4212ZM23.2499 47.9385V32.4212L20.8289 36.6146C20.6358 36.9478 20.2251 37.0764 19.8807 36.9246L7.94352 32.2832V41.9869L23.2499 47.9385ZM40.4788 24.0202L25.0836 30.0063L28.1458 35.3102L43.5411 29.324L40.4788 24.0202ZM22.9161 30.0063L7.5209 24.0202L4.45874 29.324L19.8541 35.3102L22.9161 30.0063ZM23.9999 27.0067C19.8934 27.0067 16.3787 24.4728 14.934 20.8833L9.25621 23.0909L23.9999 28.8237L38.7436 23.0909L33.0658 20.8833C31.6212 24.4727 28.1065 27.0067 23.9999 27.0067ZM39.0966 16.6854C39.5109 16.6854 39.8466 17.0212 39.8466 17.4354C39.8466 17.8496 39.5109 18.1854 39.0966 18.1854H35.584C35.1698 18.1854 34.834 17.8496 34.834 17.4354C34.834 17.0212 35.1698 16.6854 35.584 16.6854H39.0966ZM23.2499 1.94397C23.2499 1.52978 23.5857 1.19397 23.9999 1.19397C24.4141 1.19397 24.7499 1.52978 24.7499 1.94397V5.45669C24.7499 5.87088 24.4141 6.20669 23.9999 6.20669C23.5857 6.20669 23.2499 5.87088 23.2499 5.45669V1.94397ZM15.6789 4.26625C15.4735 3.90878 15.5968 3.45222 15.9544 3.24672C16.3119 3.04131 16.7685 3.16459 16.9739 3.52216L18.7302 6.56425C18.9357 6.92181 18.8124 7.37838 18.4548 7.58378C18.0973 7.78919 17.6406 7.666 17.4352 7.30834L15.6789 4.26625ZM10.2812 10.0675C9.92362 9.86041 9.80165 9.40253 10.0087 9.04506C10.2157 8.68759 10.6736 8.56544 11.0312 8.77263L14.0732 10.5289C14.4306 10.736 14.5527 11.1939 14.3456 11.5514C14.1386 11.9088 13.6806 12.0309 13.3232 11.8238L10.2812 10.0675ZM8.50846 17.7906C8.09427 17.7906 7.75846 17.4548 7.75846 17.0406C7.75846 16.6264 8.09427 16.2906 8.50846 16.2906H12.0211C12.4354 16.2906 12.7711 16.6264 12.7711 17.0406C12.7711 17.4548 12.4354 17.7906 12.0211 17.7906H8.50846ZM30.973 3.7195C31.1784 3.36203 31.6351 3.23866 31.9926 3.44406C32.3501 3.64947 32.4735 4.10613 32.2681 4.46359L30.5118 7.50569C30.3063 7.86325 29.8497 7.98653 29.4922 7.78113C29.1347 7.57572 29.0113 7.11916 29.2168 6.76159L30.973 3.7195ZM36.7714 9.11444C37.1289 8.90725 37.5867 9.02941 37.7938 9.38688C38.0009 9.74434 37.8787 10.2022 37.5214 10.4093L34.4793 12.1656C34.1218 12.3727 33.6639 12.2507 33.4568 11.8932C33.2497 11.5357 33.3719 11.0778 33.7293 10.8708L36.7714 9.11444ZM27.1308 13.4672L22.2326 18.3654L20.5611 16.2618C20.1499 15.7445 19.3972 15.6587 18.88 16.0698C18.3627 16.481 18.2767 17.2336 18.688 17.7509L21.1478 20.8464C21.5732 21.4557 22.4491 21.539 22.9791 21.0089L28.8258 15.1623C29.2937 14.6943 29.2937 13.9353 28.8258 13.4672C28.3578 12.9992 27.5989 12.9992 27.1308 13.4672Z" fill="#DC6803"/>
</svg>
