<svg width="24" height="25" viewBox="0 0 24 25" fill="none" xmlns="http://www.w3.org/2000/svg">
<path d="M21 14.7872L16.5853 12.8082L16.5684 12.8007C16.2815 12.677 15.9681 12.6272 15.6569 12.6558C15.3458 12.6845 15.0467 12.7907 14.7872 12.9647C14.7508 12.9891 14.7158 13.0154 14.6822 13.0435L12.5906 14.8247C11.3719 14.1638 10.1128 12.915 9.45094 11.7113L11.2378 9.58692C11.2665 9.55264 11.2932 9.51663 11.3175 9.47911C11.487 9.2205 11.5899 8.924 11.617 8.616C11.6442 8.308 11.5948 7.99807 11.4731 7.7138C11.4702 7.70835 11.4677 7.70271 11.4656 7.69692L9.48751 3.27473C9.32513 2.90491 9.04801 2.59719 8.69716 2.39711C8.3463 2.19703 7.94035 2.11523 7.53938 2.1638C6.17848 2.34257 4.92918 3.01062 4.02482 4.04316C3.12046 5.07571 2.62288 6.40214 2.62501 7.77473C2.62501 15.4257 8.84907 21.6497 16.5 21.6497C17.8726 21.6519 19.199 21.1543 20.2316 20.2499C21.2641 19.3456 21.9322 18.0963 22.1109 16.7354C22.1595 16.3344 22.0777 15.9284 21.8776 15.5776C21.6775 15.2267 21.3698 14.9496 21 14.7872ZM16.5 19.3997C13.418 19.396 10.4633 18.17 8.284 15.9907C6.1047 13.8114 4.87873 10.8567 4.87501 7.77473C4.87286 6.99801 5.13655 6.24394 5.62227 5.63781C6.10799 5.03169 6.78648 4.61002 7.54501 4.44286L9.30938 8.38036L7.51313 10.5197C7.4841 10.5543 7.45717 10.5906 7.43251 10.6285C7.25546 10.899 7.15137 11.2107 7.13034 11.5333C7.10932 11.8559 7.17207 12.1785 7.31251 12.4697C8.19563 14.2772 10.0153 16.0847 11.8416 16.9697C12.1347 17.1087 12.4589 17.1692 12.7825 17.1454C13.106 17.1216 13.4179 17.0142 13.6875 16.8338C13.7238 16.8093 13.7585 16.7827 13.7916 16.7541L15.8944 14.9663L19.8319 16.7297C19.6647 17.4883 19.243 18.1668 18.6369 18.6525C18.0308 19.1382 17.2767 19.4019 16.5 19.3997Z" fill="#8892AA"/>
</svg>
