<svg width="44" height="49" viewBox="0 0 44 49" fill="none" xmlns="http://www.w3.org/2000/svg">
<g clip-path="url(#clip0_2030_266)">
<path d="M40.9133 21.4345C39.8644 21.4345 39.0122 20.5744 39.0122 19.5159C39.0122 14.1371 36.9373 9.08033 33.1693 5.27772C32.4283 4.52986 32.4283 3.31602 33.1693 2.56527C33.9104 1.81453 35.1131 1.81741 35.8571 2.56527C40.3433 7.09273 42.8144 13.1131 42.8144 19.5159C42.8115 20.5744 41.9622 21.4345 40.9133 21.4345Z" fill="#FF9C00"/>
<path d="M2.90865 21.4345C1.85978 21.4345 1.00757 20.5745 1.00757 19.5159C1.00757 13.1131 3.47869 7.09275 7.96491 2.56529C8.70596 1.81743 9.90875 1.81743 10.6527 2.56529C11.3966 3.31316 11.3937 4.527 10.6527 5.27774C6.88469 9.08035 4.80974 14.1371 4.80974 19.5159C4.80974 20.5745 3.95753 21.4345 2.90865 21.4345Z" fill="#FF9C00"/>
<path d="M39.7333 32.9976C36.8603 30.5469 35.2129 26.9629 35.2129 23.1689V17.8246C35.2129 11.0765 30.245 5.49057 23.8121 4.55574V2.48472C23.8121 1.42333 22.9599 0.566162 21.911 0.566162C20.8621 0.566162 20.0099 1.42333 20.0099 2.48472V4.55574C13.5741 5.49057 8.6091 11.0765 8.6091 17.8246V23.1718C8.6091 26.9658 6.96168 30.5469 4.07157 33.0149C3.33337 33.6534 2.90869 34.5825 2.90869 35.5634C2.90869 37.4129 4.39935 38.9201 6.23488 38.9201H37.5871C39.4198 38.9201 40.9133 37.4158 40.9133 35.5634C40.9133 34.5825 40.4886 33.6534 39.7333 32.9976Z" fill="#FF9C00"/>
<path d="M21.911 46.5886C25.3512 46.5886 28.2299 44.1149 28.8911 40.8358H14.928C15.5921 44.1149 18.4708 46.5886 21.911 46.5886Z" fill="#FF9C00"/>
</g>
<defs>
<clipPath id="clip0_2030_266">
<rect width="44" height="48" fill="white" transform="translate(0 0.566162)"/>
</clipPath>
</defs>
</svg>
