<svg width="48" height="49" viewBox="0 0 48 49" fill="none" xmlns="http://www.w3.org/2000/svg">
<g clip-path="url(#clip0_2030_256)">
<path d="M23.9997 15.4214C18.9567 15.4214 14.854 19.524 14.854 24.5667C14.854 29.6098 18.9567 33.7125 23.9997 33.7125C29.0424 33.7125 33.1451 29.6098 33.1451 24.5667C33.1451 19.524 29.0424 15.4214 23.9997 15.4214ZM29.4295 22.8445L22.8777 29.3963C22.6026 29.6713 22.2419 29.809 21.8816 29.809C21.5212 29.809 21.1609 29.6717 20.8858 29.3963L18.3821 26.8925C17.832 26.3429 17.832 25.4511 18.3821 24.9011C18.9318 24.3511 19.8235 24.3511 20.3735 24.9011L21.8816 26.4092L27.4381 20.853C27.9878 20.303 28.8795 20.303 29.4295 20.853C29.9796 21.4027 29.9796 22.2944 29.4295 22.8445Z" fill="#38BFBE"/>
<path d="M44.3894 13.5897L44.3879 13.5523C44.3671 13.0912 44.3531 12.6035 44.3447 12.0607C44.3055 9.41413 42.2017 7.22493 39.5547 7.07698C34.0359 6.769 29.7666 4.96944 26.1188 1.41391L26.0877 1.38424C24.8979 0.293305 23.1031 0.293305 21.9129 1.38424L21.8818 1.41391C18.234 4.96944 13.9647 6.769 8.44589 7.07734C5.79929 7.22493 3.69505 9.41413 3.65587 12.0611C3.64781 12.6002 3.63353 13.0879 3.61265 13.5523L3.61046 13.6391C3.50316 19.2666 3.36986 26.2704 5.71287 32.6274C7.00119 36.1233 8.95236 39.1621 11.5118 41.66C14.4268 44.5047 18.2449 46.7631 22.8599 48.3723C23.0101 48.4246 23.1661 48.4671 23.325 48.499C23.5491 48.5437 23.7747 48.566 24.0003 48.566C24.2259 48.566 24.4518 48.5437 24.6756 48.499C24.8345 48.4671 24.9916 48.4243 25.1425 48.3715C29.752 46.7595 33.5661 44.5 36.4785 41.6556C39.0369 39.157 40.988 36.1174 42.2775 32.6209C44.6293 26.2448 44.4963 19.2278 44.3894 13.5897ZM23.9996 36.529C17.4034 36.529 12.0373 31.163 12.0373 24.5668C12.0373 17.9706 17.4034 12.6046 23.9996 12.6046C30.5954 12.6046 35.9618 17.9706 35.9618 24.5668C35.9618 31.163 30.5954 36.529 23.9996 36.529Z" fill="#38BFBE"/>
</g>
<defs>
<clipPath id="clip0_2030_256">
<rect width="48" height="48" fill="white" transform="translate(0 0.566162)"/>
</clipPath>
</defs>
</svg>
