<svg width="48" height="49" viewBox="0 0 48 49" fill="none" xmlns="http://www.w3.org/2000/svg">
<path d="M17.2031 32.5443H21.0881L23.5851 17.0073H19.4231L17.2031 32.5443Z" fill="#1565C0"/>
<path d="M13.8725 16.7277L10.2655 27.8257L9.5845 24.6997C7.6425 19.9827 4.3125 18.0407 4.3125 18.0407L7.7685 32.2647H11.9305L17.7575 16.7267H13.8725V16.7277ZM44.9475 16.7277H40.7855L34.4035 32.2657H38.2875L39.1195 30.0457H44.1135L44.6685 32.2657H47.9995L44.9475 16.7277ZM39.9535 27.2707L42.1735 21.4447L43.2835 27.2707H39.9535ZM28.8545 21.1667C28.8545 20.3347 29.4095 19.5017 31.3515 19.5017C32.7385 19.5017 34.1265 20.6117 34.1265 20.6117L34.9585 17.2827C34.9585 17.2827 33.0165 16.4507 31.3515 16.4507C27.1895 16.4507 25.2475 18.6707 25.2475 21.1677C25.2475 26.1617 30.7965 25.3297 30.7965 27.8267C30.7965 28.3817 30.5195 29.2137 28.2995 29.2137C26.0795 29.2137 24.4155 28.3817 24.4155 28.3817L23.8605 31.7107C23.8605 31.7107 25.2475 32.5427 28.0225 32.5427C30.5195 32.8197 34.4045 30.6007 34.4045 27.2707C34.4045 23.3867 28.8545 23.1097 28.8545 21.1667Z" fill="#1565C0"/>
<path d="M9.711 25.3303L8.324 18.3943C8.324 18.3943 7.769 17.0073 6.104 17.0073C4.439 17.0073 0 17.0073 0 17.0073C0 17.0073 8.046 19.5043 9.711 25.3303Z" fill="#FF9800"/>
</svg>
