<svg width="24" height="25" viewBox="0 0 24 25" fill="none" xmlns="http://www.w3.org/2000/svg">
<path d="M23.9983 12.2753C23.9983 18.3361 19.5059 23.3466 13.6698 24.1597C13.1242 24.2354 12.5659 24.2749 11.9992 24.2749C11.345 24.2749 10.7026 24.2228 10.0771 24.1219C4.36379 23.202 0 18.2478 0 12.2753C0 5.64785 5.37276 0.274902 12 0.274902C18.6272 0.274902 24 5.64785 24 12.2753H23.9983Z" fill="#6E7C91"/>
<path d="M4.86455 5.56836L10.3987 12.9677L4.83008 18.9839H6.08372L10.9596 13.7169L14.8987 18.9839H19.1642L13.3189 11.1683L18.5024 5.56836H17.2488L12.7589 10.4191L9.13081 5.56836H4.86539H4.86455ZM6.7076 6.4916H8.66668L17.3194 18.0607H15.3603L6.7076 6.4916Z" fill="white"/>
</svg>
